<svg width="76" height="16" viewBox="0 0 76 16" fill="none" xmlns="http://www.w3.org/2000/svg">
<g clip-path="url(#clip0_333_2183)">
<path d="M34.0549 6.72111C34.0549 6.15384 33.8815 5.71582 33.5331 5.40705C33.1862 5.09828 32.6925 4.94317 32.0565 4.94317C31.4546 4.94317 30.9446 5.05663 30.528 5.28498C30.1114 5.51332 29.8045 5.87954 29.6074 6.38649L28.4777 5.77901C28.709 5.21173 29.1374 4.75361 29.763 4.40319C30.3887 4.05421 31.164 3.879 32.0921 3.879C32.7177 3.879 33.2855 3.97235 33.7955 4.16048C34.3055 4.34861 34.7072 4.63153 35.0037 5.01067C35.2988 5.39125 35.447 5.87954 35.447 6.47697V10.1549C35.447 10.5197 35.6664 10.7021 36.1067 10.7021C36.3261 10.7021 36.5411 10.6777 36.7501 10.626L36.6805 11.5839C36.4492 11.6844 36.1482 11.7361 35.7761 11.7361C35.4396 11.7361 35.1386 11.6801 34.8718 11.5695C34.6049 11.4589 34.3974 11.288 34.2462 11.0611C34.095 10.8328 34.0208 10.547 34.0208 10.2023V10.0501L34.3677 10.096C34.2284 10.491 33.9912 10.8127 33.6546 11.0611C33.3181 11.3096 32.9416 11.492 32.525 11.6083C32.1084 11.7246 31.6962 11.7835 31.2915 11.7835C30.7815 11.7835 30.3071 11.7074 29.8668 11.5551C29.4265 11.4029 29.0766 11.1731 28.8157 10.8644C28.5548 10.5556 28.4243 10.1736 28.4243 9.71689C28.4243 9.14962 28.6408 8.68144 29.0751 8.31092C29.5095 7.94039 30.1144 7.6905 30.8912 7.55838L34.3322 6.96526V7.96768L31.5346 8.46889C30.9668 8.57086 30.5443 8.7116 30.2656 8.89399C29.9869 9.07638 29.849 9.32914 29.849 9.6537C29.849 9.97827 29.9913 10.2238 30.2745 10.4206C30.5577 10.6188 30.9609 10.7164 31.4828 10.7164C31.8193 10.7164 32.1395 10.6791 32.4464 10.603C32.7533 10.5269 33.029 10.4105 33.2722 10.254C33.5153 10.0975 33.7065 9.89928 33.8459 9.66088C33.9852 9.42248 34.0549 9.14244 34.0549 8.81787V6.72111Z" fill="preserve"/>
<path d="M38.1215 16V4.04703H39.3386L39.4602 6.1007L39.2689 5.86518C39.4201 5.47311 39.6455 5.127 39.9464 4.82972C40.2474 4.53244 40.6121 4.29979 41.0405 4.13032C41.469 3.9623 41.933 3.87756 42.4311 3.87756C43.1368 3.87756 43.7891 4.05134 44.3866 4.39888C44.9826 4.74643 45.4614 5.2462 45.8202 5.89677C46.1789 6.54734 46.3583 7.33291 46.3583 8.25347C46.3583 9.17404 46.176 9.94524 45.8113 10.6016C45.4466 11.2579 44.9618 11.7605 44.3599 12.1081C43.758 12.4556 43.0968 12.6294 42.3792 12.6294C41.6617 12.6294 41.0331 12.4585 40.4935 12.1152C39.9553 11.7734 39.5699 11.3383 39.3386 10.8112L39.5121 10.5585V15.9957H38.1215V16ZM42.2399 11.4546C43.0968 11.4546 43.7654 11.1631 44.2472 10.5786C44.7276 9.99551 44.9692 9.22143 44.9692 8.25491C44.9692 7.28839 44.735 6.51575 44.265 5.93268C43.7965 5.3496 43.1383 5.05663 42.2933 5.05663C41.7373 5.05663 41.2511 5.18876 40.833 5.45157C40.4164 5.71582 40.0917 6.08634 39.8605 6.56314C39.6292 7.03994 39.5135 7.60434 39.5135 8.25491C39.5135 8.90548 39.6262 9.45552 39.8516 9.93806C40.0769 10.4206 40.3956 10.794 40.8078 11.0568C41.2184 11.3211 41.6973 11.4517 42.2414 11.4517L42.2399 11.4546Z" fill="preserve"/>
<path d="M49.0165 2.43138C48.7037 2.43138 48.4517 2.33947 48.2604 2.15421C48.0692 1.96894 47.9743 1.7248 47.9743 1.42178C47.9743 1.11875 48.0707 0.874608 48.2604 0.689347C48.4502 0.504085 48.7037 0.410736 49.0165 0.410736C49.3293 0.410736 49.5814 0.504085 49.7726 0.689347C49.9638 0.874608 50.0587 1.11875 50.0587 1.42178C50.0587 1.7248 49.9638 1.96894 49.7726 2.15421C49.5814 2.33947 49.3293 2.43138 49.0165 2.43138ZM49.7118 4.04703V11.7835H48.3212V4.04703H49.7118Z" fill="preserve"/>
<path d="M57.4624 3.86176V4.93312H51.1721V3.86176H57.4624ZM54.3002 1.65729V9.4828C54.3002 9.86625 54.4218 10.1506 54.6649 10.3373C54.9081 10.524 55.2209 10.6173 55.6034 10.6173C55.9399 10.6173 56.229 10.5656 56.4721 10.4622C56.7153 10.3588 56.9361 10.2195 57.1318 10.0429L57.6181 11.0827C57.3513 11.2995 57.0355 11.4704 56.6708 11.5954C56.3061 11.7189 55.8865 11.7821 55.4106 11.7821C54.9703 11.7821 54.5597 11.7117 54.1772 11.5724C53.7947 11.4331 53.4908 11.2105 53.2654 10.9046C53.0401 10.5987 52.92 10.198 52.9096 9.70109V1.99909L54.3002 1.65729Z" fill="preserve"/>
<path d="M63.9099 6.55884C63.9099 5.9729 63.7365 5.52195 63.3881 5.20169C63.0412 4.88287 62.5475 4.72346 61.9115 4.72346C61.3096 4.72346 60.7996 4.84122 60.383 5.07675C59.9664 5.31228 59.6595 5.69142 59.4623 6.21417L58.3327 5.58658C58.5639 5.00063 58.9924 4.52815 59.618 4.16767C60.2436 3.8072 61.019 3.62625 61.9471 3.62625C62.5727 3.62625 63.1405 3.72247 63.6505 3.91635C64.1605 4.11023 64.5622 4.40177 64.8587 4.79383C65.1552 5.1859 65.302 5.68998 65.302 6.30752V10.1032C65.302 10.4795 65.5214 10.6676 65.9617 10.6676C66.1811 10.6676 66.3961 10.6418 66.6051 10.5886L66.5354 11.5767C66.3042 11.6815 66.0032 11.7332 65.6311 11.7332C65.2946 11.7332 64.9936 11.6758 64.7268 11.5609C64.4599 11.446 64.2524 11.2708 64.1012 11.0353C63.9499 10.7998 63.8758 10.5053 63.8758 10.1492V9.99265L64.2227 10.04C64.0834 10.4479 63.8462 10.7796 63.5096 11.0353C63.1731 11.2923 62.7965 11.4805 62.3799 11.5997C61.9634 11.7203 61.5512 11.7806 61.1465 11.7806C60.6365 11.7806 60.1621 11.7016 59.7218 11.5451C59.2815 11.3886 58.9316 11.1502 58.6707 10.8313C58.4098 10.5125 58.2793 10.1176 58.2793 9.64797C58.2793 9.06203 58.4957 8.57949 58.9301 8.19747C59.3645 7.81546 59.9694 7.55696 60.7462 7.42052L64.1871 6.80873V7.84418L61.3896 8.36119C60.8218 8.46603 60.3993 8.61252 60.1206 8.80065C59.8419 8.98879 59.704 9.25016 59.704 9.58478C59.704 9.9194 59.8463 10.1736 60.1295 10.3761C60.4126 10.58 60.8159 10.682 61.3377 10.682C61.6743 10.682 61.9945 10.6432 62.3014 10.5642C62.6083 10.4852 62.884 10.366 63.1271 10.2038C63.3703 10.0415 63.5615 9.83754 63.7009 9.59196C63.8402 9.34638 63.9099 9.05628 63.9099 8.72166V6.55741V6.55884Z" fill="preserve"/>
<path d="M69.2959 0.175201V9.63216C69.2959 10.03 69.3774 10.3043 69.539 10.4551C69.7006 10.6059 69.9615 10.682 70.3218 10.682C70.553 10.682 70.7443 10.6662 70.8955 10.6346C71.0467 10.603 71.2483 10.5455 71.5033 10.4622L71.278 11.5595C71.0927 11.6327 70.8896 11.6873 70.6702 11.7246C70.4493 11.7605 70.2239 11.7792 69.9926 11.7792C69.2855 11.7792 68.7622 11.6068 68.4197 11.2622C68.0772 10.9175 67.9067 10.389 67.9067 9.67812V0.175201H69.2973H69.2959Z" fill="preserve"/>
<path d="M22.5936 1.18625C20.5922 1.18625 18.9629 2.76313 18.9629 4.70335H19.0044C19.0044 2.81483 21.3601 2.45579 22.5921 2.45579H26.8588V1.18625H22.5921H22.5936Z" fill="preserve"/>
<path d="M22.5936 10.7394C21.3616 10.7394 19.0059 10.3804 19.0059 8.49188H18.9644C18.9644 10.4307 20.5922 12.009 22.595 12.009H26.8617V10.7394H22.595H22.5936Z" fill="preserve"/>
<path d="M4.81377 1.18625C5.82189 1.18625 6.69064 1.37438 7.42004 1.75065C8.14944 2.12692 8.75727 2.68127 9.24502 3.4137L8.08124 4.24091C7.6528 3.56162 7.1695 3.08195 6.62986 2.80047C6.09171 2.51899 5.4394 2.37824 4.67442 2.37824C4.06065 2.37824 3.55363 2.45723 3.15335 2.61664C2.75307 2.77605 2.46102 2.98573 2.2757 3.24567C2.09039 3.50561 1.99699 3.80002 1.99699 4.12889C1.99699 4.50085 2.12448 4.82686 2.37948 5.10834C2.63447 5.38982 3.14446 5.60955 3.90795 5.76896L6.39266 6.27879C7.49269 6.50139 8.26063 6.83888 8.69501 7.28983C9.12939 7.74078 9.34583 8.30087 9.34583 8.96868C9.34583 9.56324 9.16348 10.0903 8.79878 10.5527C8.43408 11.0137 7.92113 11.3728 7.26141 11.627C6.60169 11.8812 5.82485 12.009 4.93238 12.009C4.09772 12.009 3.36535 11.9056 2.7338 11.6988C2.10225 11.492 1.56113 11.2134 1.10896 10.8629C0.656791 10.5125 0.286161 10.1205 -0.00292969 9.68531L1.21422 8.77767C1.43363 9.18122 1.71827 9.53595 2.06518 9.84328C2.41209 10.1506 2.83313 10.3905 3.32533 10.5599C3.81752 10.7294 4.38236 10.8141 5.01984 10.8141C5.61137 10.8141 6.12284 10.748 6.55722 10.6145C6.99159 10.4824 7.32516 10.2856 7.55643 10.0257C7.78771 9.76573 7.90334 9.44978 7.90334 9.07926C7.90334 8.74033 7.78178 8.43443 7.53864 8.16444C7.29551 7.89444 6.83741 7.69051 6.16583 7.55121L3.47209 6.99399C2.76493 6.84607 2.19565 6.6407 1.75979 6.38076C1.32392 6.12082 1.0126 5.81348 0.821351 5.45732C0.630106 5.1026 0.535225 4.71771 0.535225 4.3041C0.535225 3.74257 0.705714 3.22413 1.04818 2.75164C1.38916 2.27915 1.88283 1.90001 2.52477 1.61422C3.16818 1.32843 3.92871 1.18481 4.80933 1.18481L4.81377 1.18625Z" fill="preserve"/>
<path d="M18.7331 1.18625V2.45292H14.7362V11.9932H13.3456V2.45292H9.34875V1.18625H18.7331Z" fill="preserve"/>
<path d="M74 0.283951C74.9444 0.283951 75.716 1.05247 75.716 2C75.716 2.94753 74.9475 3.71605 74 3.71605C73.0525 3.71605 72.2839 2.94753 72.2839 2C72.2839 1.05247 73.0525 0.283951 74 0.283951ZM74 0C72.8951 0 72 0.895062 72 2C72 3.10494 72.8951 4 74 4C75.1049 4 76 3.10494 76 2C76 0.895062 75.1049 0 74 0V0Z" fill="preserve"/>
<path d="M75 3L74.3234 2.14809C74.4393 2.12366 74.5402 2.08397 74.6224 2.02901C74.7757 1.92824 74.8542 1.78168 74.8542 1.59542C74.8542 1.40916 74.7757 1.2687 74.6224 1.16183C74.4692 1.05496 74.2598 1 73.9981 1H73V2.99695H73.3925V2.19695H73.9196L74.5439 2.99695H75V3ZM73.3963 1.27786H73.972C74.1327 1.27786 74.2523 1.30534 74.3308 1.36031C74.4093 1.41527 74.4467 1.49771 74.4467 1.60458C74.4467 1.71145 74.4093 1.79695 74.3308 1.85191C74.2523 1.90687 74.1327 1.9313 73.972 1.9313H73.3963V1.27786Z" fill="preserve"/>
</g>
<defs>
<clipPath id="clip0_333_2183">
<rect width="76" height="16" fill="preserve"/>
</clipPath>
</defs>
</svg>
