<svg width="49" height="48" viewBox="0 0 49 48" fill="none" xmlns="http://www.w3.org/2000/svg">
<g clip-path="url(#clip0_315_2384)">
<path d="M15.8546 0C7.10833 0 0 6.99363 0 15.5987H0.181269C0.181269 7.21656 10.4748 5.63057 15.8546 5.63057H34.4864V0H15.8546Z" fill="black"/>
<path d="M15.8545 42.3694C10.4747 42.3694 0.187739 40.7771 0.187739 32.4013H0.00646973C0.00646973 41 7.1148 48 15.861 48H34.4929V42.3694H15.8545Z" fill="black"/>
<path d="M42.7083 0.851852C45.5881 0.851852 47.9408 3.15741 47.9408 6C47.9408 8.84259 45.5975 11.1481 42.7083 11.1481C39.8191 11.1481 37.4757 8.84259 37.4757 6C37.4757 3.15741 39.8191 0.851852 42.7083 0.851852ZM42.7083 0C39.3391 0 36.6099 2.68519 36.6099 6C36.6099 9.31481 39.3391 12 42.7083 12C46.0774 12 48.8067 9.31481 48.8067 6C48.8067 2.68519 46.0774 0 42.7083 0V0Z" fill="black"/>
<path d="M45.7199 9.02777L44.0165 6.44443C44.3082 6.37036 44.5623 6.24999 44.7694 6.08332C45.1552 5.77777 45.3528 5.33332 45.3528 4.76851C45.3528 4.20369 45.1552 3.77777 44.7694 3.45369C44.3835 3.12962 43.8565 2.96295 43.1977 2.96295H40.6849V9.01851H41.6731V6.59258H43.0001L44.5717 9.01851H45.7199V9.02777ZM41.6825 3.80554H43.1318C43.5365 3.80554 43.8377 3.88888 44.0353 4.05554C44.2329 4.22221 44.327 4.47221 44.327 4.79628C44.327 5.12036 44.2329 5.37962 44.0353 5.54628C43.8377 5.71295 43.5365 5.78703 43.1318 5.78703H41.6825V3.80554Z" fill="black"/>
</g>
<defs>
<clipPath id="clip0_315_2384">
<rect width="49" height="48" fill="white"/>
</clipPath>
</defs>
</svg>
