<svg width="1000" height="1308" viewBox="0 0 1000 1308" fill="none" xmlns="http://www.w3.org/2000/svg">
<path d="M113.19 1022.96C-33.6135 982.289 21.8754 746.925 21.8754 746.925C16.7865 710.855 33.668 649.551 62.1249 620.341C91.7217 578.514 142.244 568.946 171.963 521.579C246.586 402.073 369.79 351.235 510.311 353.74H511.125C473.264 318.936 521.371 262.341 582.057 258.612C695.22 251.643 769.883 364.697 825.006 424.981C838.183 423.728 851.332 419.89 864.916 412.594C890.957 398.602 905.464 369.433 901.176 340.115C893.115 285.031 853.829 226.585 711.87 223.876C404.381 218.01 179.494 385.236 110.557 164.477C56.941 -7.29562 353.37 -62.8291 374.852 88.2274C384.311 154.745 361.865 190.229 330.776 204.657C330.776 204.657 451.443 153.996 684.323 143.979C917.202 133.961 1034.08 259.197 977.427 451.658C959.189 504.633 913.43 493.254 957.425 537.095C1062.3 629.733 924.259 755.418 966.055 820.711C1009.41 837.752 1004.84 865.954 984.674 881.471C984.674 881.471 975.826 918.534 966.598 944.613C957.37 970.692 939.295 996.022 939.295 996.022C952.444 1063.02 872.163 1093.87 866.857 1133.47C860.017 1135.21 853.558 1135.29 847.573 1134.08C846.461 1133.85 845.361 1133.58 844.276 1133.26L844.357 1133.29C839.635 1139.54 841.67 1151.97 841.67 1151.97C817.583 1158.66 796.413 1147.45 781.418 1129.11C738.278 1114.6 726.051 1081.3 726.594 1053.3L726.567 1053.61C705.194 1032.84 722.876 984.357 735.7 977.511C735.7 968.936 745.104 947.934 805.261 928.497C818.356 882.737 810.513 846.994 794.554 813.252C791.718 821.745 785.91 826.414 778.446 827.952C769.286 847.96 731.71 851.281 699.372 835.384C694.84 837.207 682.192 838.038 666.437 829.558C666.437 829.558 643.042 829.667 633.638 820.098C623.161 860.619 572.463 900.173 548.959 966.881C546.177 974.775 544.915 983.092 544.576 991.449C543.409 1020.71 518.182 1029.66 518.182 1029.66C500.405 1088.32 415.645 1169.85 415.645 1169.85C423.963 1208.95 398.695 1244.75 376.63 1268.46C350.412 1296.64 324.886 1285.38 283.008 1307.49C279.792 1302.38 277.838 1295.93 276.943 1288.83C263.169 1290.91 247.631 1294.05 237.575 1299.26C236.842 1298.01 236.069 1294.9 235.404 1290.51C227.764 1290.58 218.645 1297.06 218.645 1297.06C207.001 1285.99 200.705 1259.32 205.766 1231.67L205.536 1232.98C194.15 1194.79 213.814 1158.93 224.629 1152.11C236.666 1105.73 298.207 1108.52 305.562 1038.87L305.522 1038.76C284.189 1047.2 262.626 1054.02 239.869 1055.07C236.286 1177.4 139.34 1177.98 142.095 1249.05C133.233 1251.19 125.457 1251.07 118.713 1249.24C115.429 1251.88 107.87 1259.03 109.634 1268.71C84.8958 1274.82 67.7565 1262.95 57.1717 1243.91C28.8098 1235.85 15.0902 1210.64 14.941 1181.17C14.941 1181.17 -22.1466 1130.55 21.8754 1094.47C21.8754 1094.47 19.677 1068.66 83.1452 1037.63C105.414 1027.48 113.19 1022.97 113.19 1022.97V1022.96Z" fill="#1D1D1B"/>
<path d="M303.555 789.919C363.071 825.028 407.793 777.857 407.793 777.857" stroke="#DFDAD5" stroke-width="0.5" stroke-linejoin="bevel"/>
<path d="M437.002 752.141C454.837 683.052 428.275 651.155 428.275 651.155" stroke="#DFDAD5" stroke-width="0.5" stroke-linejoin="bevel"/>
<path d="M437.871 670.296C441.97 660.698 451.864 643.626 459.37 632.98" stroke="#DFDAD5" stroke-width="0.5" stroke-linejoin="bevel"/>
<path d="M397.288 786.57C497.387 892.048 562.333 811.224 496.736 765.999C492.515 763.086 487.9 760.772 483.163 758.825C469.237 753.121 449.326 740.229 441.372 730.754" stroke="#DFDAD5" stroke-width="0.5" stroke-linejoin="bevel"/>
<path d="M313.694 802.906C303.202 879.551 437.409 877.836 401.401 790.817" stroke="#DFDAD5" stroke-width="0.5" stroke-linejoin="bevel"/>
<path d="M285.72 817.772L321.986 798.509" stroke="#DFDAD5" stroke-width="0.5" stroke-linejoin="bevel"/>
<path d="M443.639 658.669C514.584 662.808 517.203 745.416 458.366 745.171" stroke="#DFDAD5" stroke-width="0.5" stroke-linejoin="bevel"/>
<path d="M360.615 874.582C289.303 861.935 253.363 886.753 315.01 923.387" stroke="#DFDAD5" stroke-width="0.5" stroke-linejoin="bevel"/>
<path d="M368.148 873.779C367.32 878.053 366.777 887.365 357.724 889.666" stroke="#DFDAD5" stroke-width="0.5" stroke-linejoin="bevel"/>
<path d="M514.598 681.731C516.308 685.733 521.072 693.738 514.869 700.736" stroke="#DFDAD5" stroke-width="0.5" stroke-linejoin="bevel"/>
<path d="M526.216 688.415C527.437 692.581 531.238 701.103 524.261 707.325" stroke="#DFDAD5" stroke-width="0.5" stroke-linejoin="bevel"/>
<path d="M537.576 696.869C538.798 701.035 540.698 710.551 533.721 716.773" stroke="#DFDAD5" stroke-width="0.5" stroke-linejoin="bevel"/>
<path d="M547.349 706.821C548.57 710.987 550.47 720.503 543.494 726.724" stroke="#DFDAD5" stroke-width="0.5" stroke-linejoin="bevel"/>
<path d="M380.444 876.093C380.444 880.586 379.074 889.68 370.021 891.98" stroke="#DFDAD5" stroke-width="0.5" stroke-linejoin="bevel"/>
<path d="M391.981 877.155C392.483 881.715 390.61 890.741 381.557 893.042" stroke="#DFDAD5" stroke-width="0.5" stroke-linejoin="bevel"/>
<path d="M402.907 878.639C402.079 882.913 401.536 892.225 392.483 894.526" stroke="#DFDAD5" stroke-width="0.5" stroke-linejoin="bevel"/>
<path d="M413.847 879.946C413.128 884.234 412.829 893.559 403.844 896.092" stroke="#DFDAD5" stroke-width="0.5" stroke-linejoin="bevel"/>
<path d="M424.461 880.586C423.999 884.915 424.244 894.24 415.435 897.303" stroke="#DFDAD5" stroke-width="0.5" stroke-linejoin="bevel"/>
<path d="M434.288 881.116C434.097 885.459 434.925 894.757 426.32 898.365" stroke="#DFDAD5" stroke-width="0.5" stroke-linejoin="bevel"/>
<path d="M445.214 879.633C445.417 884.043 447.453 894.526 439.282 898.379" stroke="#DFDAD5" stroke-width="0.5" stroke-linejoin="bevel"/>
<path d="M346.472 872.513C346.472 872.513 331.311 916.294 302.795 932.644C362.338 933.584 377.838 893.192 377.838 893.192" stroke="#DFDAD5" stroke-width="0.5" stroke-linejoin="bevel"/>
<path d="M426.646 958.578C428.505 955.025 430.949 928.655 430.949 928.655C430.949 928.655 443.802 938.43 445.214 958.251" stroke="#DFDAD5" stroke-width="0.5" stroke-linejoin="bevel"/>
<path d="M442.608 945.85C442.608 945.85 461.284 935.735 466.672 954.372" stroke="#DFDAD5" stroke-width="0.5" stroke-linejoin="bevel"/>
<path d="M461.08 945.495C471.314 931.827 486.57 933.638 487.968 949.375" stroke="#DFDAD5" stroke-width="0.5" stroke-linejoin="bevel"/>
<path d="M484.398 939.941C489.284 930.929 501.636 930.929 508.368 936.579" stroke="#DFDAD5" stroke-width="0.5" stroke-linejoin="bevel"/>
<path d="M503.726 947.565C512.548 932.195 510.146 917.247 510.146 917.247C524.709 928.642 522.646 952.506 522.646 952.506" stroke="#DFDAD5" stroke-width="0.5" stroke-linejoin="bevel"/>
<path d="M341.531 884.357C297.773 881.171 296.809 902.027 322.163 915.722" stroke="#DFDAD5" stroke-width="0.5" stroke-linejoin="bevel"/>
<path d="M345.983 924.19C384.706 938.662 386.145 945.931 410.63 954.726C423.429 959.327 437.233 960.375 450.588 957.857C479.064 952.479 511.245 938.879 526.175 955.719C528.075 957.857 527.261 961.383 524.56 962.308C514.964 965.603 484.914 957.094 448.213 970.572C406.599 982.811 370.007 936.443 330.524 929.677" stroke="#DFDAD5" stroke-width="0.5" stroke-linejoin="bevel"/>
<path d="M236.777 925.729C181.78 862.194 233.194 822.455 283.725 837.008C188.281 752.209 123.784 861.472 236.777 925.729Z" stroke="#DFDAD5" stroke-width="0.5" stroke-linejoin="bevel"/>
<path d="M433.527 636.261C247.839 596.509 169.035 752.413 169.035 752.413" stroke="#DFDAD5" stroke-width="0.5" stroke-linejoin="bevel"/>
<path d="M524.478 962.336C536.002 981.572 518.33 1007.74 489.691 1014.67C412.422 1030.31 405.31 984.907 362.298 989.944C302.577 999.079 214.219 971.389 200.7 953.146" stroke="#DFDAD5" stroke-width="0.5" stroke-linejoin="bevel"/>
<path d="M458.216 831.903C463.713 809.944 483.747 804.513 483.747 804.513C481.168 789.919 499.355 771.431 503.414 771.077" stroke="#DFDAD5" stroke-width="0.5" stroke-linejoin="bevel"/>
<path d="M474.938 837.117C483.407 821.57 495.623 828.105 500.685 836.559" stroke="#DFDAD5" stroke-width="0.5" stroke-linejoin="bevel"/>
<path d="M522.66 813.416C503.929 800.17 505.68 789.115 515.629 784.541" stroke="#DFDAD5" stroke-width="0.5" stroke-linejoin="bevel"/>
<path d="M483.747 804.526C483.747 804.526 505.056 810.012 515.249 827.874" stroke="#DFDAD5" stroke-width="0.5" stroke-linejoin="bevel"/>
<path d="M329.289 865.801C230.533 792.968 161.977 916.063 310.599 948.096C254.72 920.596 236.03 853.535 329.289 865.801Z" stroke="#DFDAD5" stroke-width="0.5" stroke-linejoin="bevel"/>
<path d="M441.02 823.054C429.795 848.702 426.442 855.223 393.474 853.576C425.723 873.057 458.094 880.191 469.522 835.824" stroke="#DFDAD5" stroke-width="0.5" stroke-linejoin="bevel"/>
<path d="M485.525 838.397C485.728 850.799 479.973 869.3 453.004 879.102C456.533 877.822 521.995 879.075 496.966 837.471" stroke="#DFDAD5" stroke-width="0.5" stroke-linejoin="bevel"/>
<path d="M489.284 761.602C496.709 756.538 526.311 732.401 508.49 709.83C532.174 739.82 528.116 765.428 509.236 776.55" stroke="#DFDAD5" stroke-width="0.5" stroke-linejoin="bevel"/>
<path d="M519.239 790.845C541.105 784.541 552.167 747.063 540.752 735.655C562.401 757.287 565.903 818.725 523.216 803.9" stroke="#DFDAD5" stroke-width="0.5" stroke-linejoin="bevel"/>
<path d="M496.709 894.512C515.14 877.74 534.387 830.542 576.557 804.485" stroke="#DFDAD5" stroke-width="0.5" stroke-linejoin="bevel"/>
<path d="M566.296 811.537C540.426 816.492 513.159 836.818 506.861 882.818" stroke="#DFDAD5" stroke-width="0.5" stroke-linejoin="bevel"/>
<path d="M523.243 879.755C534.468 885.051 544.363 864.168 526.623 854.529" stroke="#DFDAD5" stroke-width="0.5" stroke-linejoin="bevel"/>
<path d="M541.105 836.559C554.189 845.816 551.502 869.395 535.052 863.051" stroke="#DFDAD5" stroke-width="0.5" stroke-linejoin="bevel"/>
<path d="M548.57 847.178C548.57 847.178 567.613 845.83 564.409 828.418" stroke="#DFDAD5" stroke-width="0.5" stroke-linejoin="bevel"/>
<path d="M399.84 816.179C400.152 837.417 366.899 837.417 367.211 816.179C366.899 794.942 400.152 794.942 399.84 816.179Z" stroke="#DFDAD5" stroke-width="0.5" stroke-linejoin="bevel"/>
<path d="M481.684 699.66C481.996 720.897 448.743 720.897 449.055 699.66C448.743 678.423 481.996 678.423 481.684 699.66Z" stroke="#DFDAD5" stroke-width="0.5" stroke-linejoin="bevel"/>
<path d="M164.475 860.192C158.543 860.015 145.812 856.285 145.731 848.58" stroke="#DFDAD5" stroke-width="0.5" stroke-linejoin="bevel"/>
<path d="M164.475 844.673C158.543 844.496 145.812 840.766 145.731 833.06" stroke="#DFDAD5" stroke-width="0.5" stroke-linejoin="bevel"/>
<path d="M166.456 875.589C158.896 875.589 147.794 871.682 147.712 863.977" stroke="#DFDAD5" stroke-width="0.5" stroke-linejoin="bevel"/>
<path d="M168.696 890.36C161.244 890.891 150.454 887.597 150.373 879.891" stroke="#DFDAD5" stroke-width="0.5" stroke-linejoin="bevel"/>
<path d="M172.265 905.485C164.814 906.016 154.024 902.721 153.942 895.016" stroke="#DFDAD5" stroke-width="0.5" stroke-linejoin="bevel"/>
<path d="M178.02 920.324C170.569 920.855 159.778 917.56 159.697 909.855" stroke="#DFDAD5" stroke-width="0.5" stroke-linejoin="bevel"/>
<path d="M182.798 934.618C175.346 935.149 164.556 931.855 164.475 924.149" stroke="#DFDAD5" stroke-width="0.5" stroke-linejoin="bevel"/>
<path d="M192.706 950.533C185.255 951.063 174.464 947.769 174.383 940.064" stroke="#DFDAD5" stroke-width="0.5" stroke-linejoin="bevel"/>
<path d="M190.344 754.496C161.652 748.628 127.407 754.006 137.967 785.018C128.548 794.03 122.073 809.944 157.593 829.167" stroke="#DFDAD5" stroke-width="0.5" stroke-linejoin="bevel"/>
<path d="M193.439 771.404C157.077 760.949 119.847 779.096 183.816 796.698" stroke="#DFDAD5" stroke-width="0.5" stroke-linejoin="bevel"/>
<path d="M181.726 804.989C153.942 795.228 123.621 805.792 172.374 822.959" stroke="#DFDAD5" stroke-width="0.5" stroke-linejoin="bevel"/>
<path d="M401.428 631.102C418.57 623.968 517.488 624.948 499.084 699.66" stroke="#DFDAD5" stroke-width="0.5" stroke-linejoin="bevel"/>
<path d="M349.146 740.174C349.146 740.174 380.675 754.686 388.059 781.723" stroke="#DFDAD5" stroke-width="0.5" stroke-linejoin="bevel"/>
<path d="M327.008 742.461C327.008 742.461 369.22 757.75 372.029 781.723" stroke="#DFDAD5" stroke-width="0.5" stroke-linejoin="bevel"/>
<path d="M302.7 747.063C302.7 747.063 359.909 761.67 360.615 781.723" stroke="#DFDAD5" stroke-width="0.5" stroke-linejoin="bevel"/>
<path d="M278.947 767.048C278.947 767.048 330.32 758.308 350.924 784.174" stroke="#DFDAD5" stroke-width="0.5" stroke-linejoin="bevel"/>
<path d="M271.577 784.174C271.577 784.174 323.208 769.838 334.65 790.831" stroke="#DFDAD5" stroke-width="0.5" stroke-linejoin="bevel"/>
<path d="M403.437 637.677C403.437 637.677 395.13 668.703 433.541 687.04" stroke="#DFDAD5" stroke-width="0.5" stroke-linejoin="bevel"/>
<path d="M388.045 652.067C388.045 652.067 380.824 678.627 432.374 698.857" stroke="#DFDAD5" stroke-width="0.5" stroke-linejoin="bevel"/>
<path d="M383.512 683.583C383.512 683.583 390.773 707.202 433.527 715.752" stroke="#DFDAD5" stroke-width="0.5" stroke-linejoin="bevel"/>
<path d="M395.836 713.696C395.836 713.696 413.603 729.556 435.726 729.311" stroke="#DFDAD5" stroke-width="0.5" stroke-linejoin="bevel"/>
<path d="M407.793 1003.39C340.147 1013.17 283.874 1064.94 214.056 1053.81" stroke="#DFDAD5" stroke-width="0.5" stroke-linejoin="bevel"/>
<path d="M305.631 1039.02C298.275 1108.68 236.722 1105.89 224.683 1152.29C213.88 1159.09 194.213 1194.97 205.587 1233.17" stroke="#DFDAD5" stroke-width="0.5" stroke-linejoin="bevel"/>
<path d="M111.107 607.373C55.4854 583.522 14.3057 693.316 21.8793 747.063C28.8828 796.698 54.4267 828.35 60.6431 848.417C30.8237 752.154 39.7953 697.877 104.755 651.332C124.082 637.487 131.371 616.426 111.107 607.373V607.373Z" stroke="#DFDAD5" stroke-width="0.5" stroke-linejoin="bevel"/>
<path d="M210.649 698.095C187.603 704.724 159.778 684.508 166.972 655.116C139.012 662.359 114.812 623.614 148.432 605.726C124.964 592.18 127.285 559.998 160.267 557.438C158.693 552.102 158.095 543.294 158.679 539.291" stroke="#DFDAD5" stroke-width="0.5" stroke-linejoin="bevel"/>
<path d="M62.1361 620.456C91.7383 578.621 142.27 569.051 171.994 521.675C246.631 402.147 369.858 351.3 510.403 353.805C702.933 355.521 774.149 461.516 865.073 412.671C891.119 398.676 905.629 369.502 901.34 340.178C893.277 285.083 853.984 226.626 712 223.917C404.455 218.05 179.527 385.307 110.577 164.507C56.9513 -7.29703 353.435 -62.8407 374.92 88.2436C400.478 267.957 193.222 221.195 211.396 144.631C224.928 87.6446 277.984 92.7361 300.84 117.622C322.828 141.555 305.441 196.173 260.475 207.377" stroke="#DFDAD5" stroke-width="0.5" stroke-linejoin="bevel"/>
<path d="M381.815 368.304C486.57 382.203 510.729 415.502 494.455 549.488C532.323 480.766 572.105 410.955 501.147 353.982" stroke="#DFDAD5" stroke-width="0.5" stroke-linejoin="bevel"/>
<path d="M562.727 356.964C641.489 414.931 563.907 513.534 562.727 557.711C592.967 504.536 689.252 440.878 642.114 372.769" stroke="#DFDAD5" stroke-width="0.5" stroke-linejoin="bevel"/>
<path d="M693.269 389.718C748.443 473.292 653.895 520.137 655.035 571.134C716.234 489.683 798.078 491.044 748.565 410.778" stroke="#DFDAD5" stroke-width="0.5" stroke-linejoin="bevel"/>
<path d="M808.719 425.331C852.003 472.802 790.423 515.876 784.383 557.71C808.923 507.844 861.395 515.93 878.008 476.505C883.831 462.701 883.519 447.113 878.117 433.145C875.239 425.726 870.76 417.993 863.811 413.324" stroke="#DFDAD5" stroke-width="0.5" stroke-linejoin="bevel"/>
<path d="M7.81787 774.889C7.81787 774.889 9.02585 788.979 21.8792 795.228" stroke="#DFDAD5" stroke-width="0.5" stroke-linejoin="bevel"/>
<path d="M5.21191 790.831C5.21191 790.831 6.41989 804.921 19.2733 811.17" stroke="#DFDAD5" stroke-width="0.5" stroke-linejoin="bevel"/>
<path d="M3.80042 808.814C3.80042 808.814 5.00839 822.905 17.8618 829.153" stroke="#DFDAD5" stroke-width="0.5" stroke-linejoin="bevel"/>
<path d="M3.80042 827.411C3.80042 827.411 5.00839 841.501 17.8618 847.749" stroke="#DFDAD5" stroke-width="0.5" stroke-linejoin="bevel"/>
<path d="M3.71899 848.199C3.71899 848.199 5.87706 862.166 19.1376 867.517" stroke="#DFDAD5" stroke-width="0.5" stroke-linejoin="bevel"/>
<path d="M4.22107 867.462C4.22107 867.462 6.84061 881.362 20.2641 886.276" stroke="#DFDAD5" stroke-width="0.5" stroke-linejoin="bevel"/>
<path d="M5.71411 888.631C5.71411 888.631 10.2203 902.027 24.1866 905.036" stroke="#DFDAD5" stroke-width="0.5" stroke-linejoin="bevel"/>
<path d="M8.03503 907.649C8.03503 907.649 14.6178 920.16 28.8828 920.896" stroke="#DFDAD5" stroke-width="0.5" stroke-linejoin="bevel"/>
<path d="M11.7947 925.143C11.7947 925.143 19.2868 937.123 33.5654 936.783" stroke="#DFDAD5" stroke-width="0.5" stroke-linejoin="bevel"/>
<path d="M16.2874 942.963C16.2874 942.963 25.7883 953.405 39.7818 950.519" stroke="#DFDAD5" stroke-width="0.5" stroke-linejoin="bevel"/>
<path d="M23.413 959.518C23.413 959.518 34.3798 968.394 47.7761 963.425" stroke="#DFDAD5" stroke-width="0.5" stroke-linejoin="bevel"/>
<path d="M32.7239 975.024C32.7239 975.024 45.1158 981.762 57.3856 974.411" stroke="#DFDAD5" stroke-width="0.5" stroke-linejoin="bevel"/>
<path d="M44.2064 988.501C44.2064 988.501 57.3449 993.62 68.5967 984.798" stroke="#DFDAD5" stroke-width="0.5" stroke-linejoin="bevel"/>
<path d="M57.4941 1001.47C57.4941 1001.47 71.3655 1003.98 80.7307 993.143" stroke="#DFDAD5" stroke-width="0.5" stroke-linejoin="bevel"/>
<path d="M71.2434 1011.28C71.2434 1011.28 85.2233 1013.14 94.0864 1001.91" stroke="#DFDAD5" stroke-width="0.5" stroke-linejoin="bevel"/>
<path d="M86.567 1019.74C86.567 1019.74 100.547 1021.61 109.41 1010.38" stroke="#DFDAD5" stroke-width="0.5" stroke-linejoin="bevel"/>
<path d="M102.786 1028.66C102.786 1028.66 116.766 1030.53 125.629 1019.3" stroke="#DFDAD5" stroke-width="0.5" stroke-linejoin="bevel"/>
<path d="M118.707 1037.81C118.707 1037.81 132.769 1038.9 140.994 1027.18" stroke="#DFDAD5" stroke-width="0.5" stroke-linejoin="bevel"/>
<path d="M134.262 1046.44C134.262 1046.44 148.35 1045.99 155.259 1033.44" stroke="#DFDAD5" stroke-width="0.5" stroke-linejoin="bevel"/>
<path d="M153.019 1052.63C153.019 1052.63 166.972 1050.65 172.483 1037.43" stroke="#DFDAD5" stroke-width="0.5" stroke-linejoin="bevel"/>
<path d="M170.447 1056.73C170.447 1056.73 184.399 1054.75 189.91 1041.53" stroke="#DFDAD5" stroke-width="0.5" stroke-linejoin="bevel"/>
<path d="M190.385 1059.48C190.385 1059.48 204.338 1057.5 209.848 1044.28" stroke="#DFDAD5" stroke-width="0.5" stroke-linejoin="bevel"/>
<path d="M239.926 1055.24C236.342 1177.59 139.379 1178.17 142.134 1249.26C75.6952 1265.28 69.7232 1154.48 108.107 1146.28C107.428 1115.78 151.825 1100.51 162.534 1100.51" stroke="#DFDAD5" stroke-width="0.5" stroke-linejoin="bevel"/>
<path d="M124.381 1077.06C63.8327 1105.81 64.9321 1130.15 64.9321 1130.15C29.5343 1141.37 34.8005 1287.39 109.654 1268.91C107.89 1259.24 115.45 1252.09 118.734 1249.45" stroke="#DFDAD5" stroke-width="0.5" stroke-linejoin="bevel"/>
<path d="M91.5211 1057.73C33.1311 1083.21 33.5383 1118.72 33.5383 1118.72C3.17606 1168.02 9.32452 1230.52 57.1956 1244.12" stroke="#DFDAD5" stroke-width="0.5" stroke-linejoin="bevel"/>
<path d="M83.1739 1037.81C19.6805 1068.85 21.8929 1094.66 21.8929 1094.66C-22.1372 1130.75 14.9572 1181.38 14.9572 1181.38" stroke="#DFDAD5" stroke-width="0.5" stroke-linejoin="bevel"/>
<path d="M283.033 1122.24C222.335 1163.45 224.683 1188.76 224.683 1188.76C195.543 1226.4 200.822 1280.27 218.711 1297.27C218.711 1297.27 227.832 1290.79 235.474 1290.72" stroke="#DFDAD5" stroke-width="0.5" stroke-linejoin="bevel"/>
<path d="M305.36 1145.36C252.508 1178.77 256.552 1204.06 256.552 1204.06C226.977 1217.8 233.275 1291.99 237.632 1299.48C247.689 1294.28 263.23 1291.12 277.006 1289.04" stroke="#DFDAD5" stroke-width="0.5" stroke-linejoin="bevel"/>
<path d="M350.394 1166.24C308.332 1183.48 299.306 1206.01 299.958 1216.83C282.34 1224.78 267.234 1282.6 283.087 1307.7C324.973 1285.59 350.503 1296.85 376.725 1268.67C398.795 1244.96 424.067 1209.14 415.747 1170.04" stroke="#DFDAD5" stroke-width="0.5" stroke-linejoin="bevel"/>
<path d="M283.969 1089.12C270.342 1102.54 284.146 1141.72 316.232 1149.29C349.906 1157.24 390.013 1131.54 390.013 1131.54C323.9 1144.49 291.041 1102.73 294.909 1074.21" stroke="#DFDAD5" stroke-width="0.5" stroke-linejoin="bevel"/>
<path d="M328.121 1029.8C349.593 1079.26 368.419 1084.44 441.128 1070.32C423.361 1091.72 395.198 1115.01 361.429 1109.61C340.771 1106.35 310.925 1092.89 302.795 1056.47" stroke="#DFDAD5" stroke-width="0.5" stroke-linejoin="bevel"/>
<path d="M350.829 1020.08C399.528 1087.46 456.045 1036.82 472.25 1031.49C424.624 1047.15 397.668 1015.25 395.836 1005.6" stroke="#DFDAD5" stroke-width="0.5" stroke-linejoin="bevel"/>
<path d="M429.171 1148.3C429.171 1148.3 433.663 1164.72 423.361 1171.48" stroke="#DFDAD5" stroke-width="0.5" stroke-linejoin="bevel"/>
<path d="M442.255 1134.74C442.255 1134.74 446.747 1151.16 436.446 1157.92" stroke="#DFDAD5" stroke-width="0.5" stroke-linejoin="bevel"/>
<path d="M455.583 1119.41C455.583 1119.41 460.076 1135.83 449.774 1142.59" stroke="#DFDAD5" stroke-width="0.5" stroke-linejoin="bevel"/>
<path d="M469.359 1104.08C469.359 1104.08 473.852 1120.5 463.55 1127.27" stroke="#DFDAD5" stroke-width="0.5" stroke-linejoin="bevel"/>
<path d="M483.38 1086.42C483.38 1086.42 487.873 1102.84 477.571 1109.61" stroke="#DFDAD5" stroke-width="0.5" stroke-linejoin="bevel"/>
<path d="M493.533 1069.48C493.533 1069.48 501.812 1084.34 493.424 1093.38" stroke="#DFDAD5" stroke-width="0.5" stroke-linejoin="bevel"/>
<path d="M506.155 1052.61C506.155 1052.61 514.598 1067.38 506.318 1076.51" stroke="#DFDAD5" stroke-width="0.5" stroke-linejoin="bevel"/>
<path d="M514.625 1035.06C514.625 1035.06 524.886 1048.63 517.828 1058.75" stroke="#DFDAD5" stroke-width="0.5" stroke-linejoin="bevel"/>
<path d="M518.303 1029.8C518.303 1029.8 543.535 1020.86 544.702 991.591C545.028 983.233 546.303 974.915 549.086 967.019C589.397 852.596 709.692 818.072 569.947 721.496" stroke="#DFDAD5" stroke-width="0.5" stroke-linejoin="bevel"/>
<path d="M707.412 536.909C676.317 738.718 847.144 782.812 805.407 928.655C745.239 948.096 735.833 969.102 735.833 977.678C723.007 984.539 705.322 1033.03 726.699 1053.79" stroke="#DFDAD5" stroke-width="0.5" stroke-linejoin="bevel"/>
<path d="M705.43 551.925C757.808 502.929 766.562 640.822 704.915 611.444" stroke="#DFDAD5" stroke-width="0.5" stroke-linejoin="bevel"/>
<path d="M750.18 736.934C858.205 744.286 835.376 655.498 863.132 608C852.546 672.583 880.655 713.587 845.243 748.928C809.832 784.256 778.954 777.68 774.231 776.21" stroke="#DFDAD5" stroke-width="0.5" stroke-linejoin="bevel"/>
<path d="M803.263 950.369C764.377 954.848 742.321 988.242 742.661 1009.06C725.857 1018.31 704.874 1103.51 781.574 1129.31" stroke="#DFDAD5" stroke-width="0.5" stroke-linejoin="bevel"/>
<path d="M828.983 970.395C779.565 984.607 769.345 1009.29 770.01 1031.48C736.607 1066.55 779.402 1169.52 841.837 1152.16C841.837 1152.16 839.801 1139.74 844.524 1133.49" stroke="#DFDAD5" stroke-width="0.5" stroke-linejoin="bevel"/>
<path d="M870.597 995.961C818.994 998.983 814.108 1025.42 814.284 1047.72C793.368 1073.6 812.058 1127.05 847.727 1134.28C853.713 1135.49 860.173 1135.41 867.014 1133.66C872.538 1092.48 959.105 1060.75 937.443 988.038" stroke="#DFDAD5" stroke-width="0.5" stroke-linejoin="bevel"/>
<path d="M799.205 823.49C871.52 837.743 870.638 768.314 900.308 727.051C882.134 788.353 894.96 901.183 810.416 862.52" stroke="#DFDAD5" stroke-width="0.5" stroke-linejoin="bevel"/>
<path d="M810.999 901.088C841.253 916.09 883.885 913.898 913.026 851.071C913.026 851.071 908.764 943.1 842.868 943.1C809.805 943.1 805.407 928.656 805.407 928.656" stroke="#DFDAD5" stroke-width="0.5" stroke-linejoin="bevel"/>
<path d="M945.736 968.176C945.736 968.176 952.93 984.567 947.921 998.561" stroke="#DFDAD5" stroke-width="0.5" stroke-linejoin="bevel"/>
<path d="M955.264 948.041C955.264 948.041 962.458 964.432 957.449 978.427" stroke="#DFDAD5" stroke-width="0.5" stroke-linejoin="bevel"/>
<path d="M964.792 927.907C964.792 927.907 971.986 944.298 966.978 958.292" stroke="#DFDAD5" stroke-width="0.5" stroke-linejoin="bevel"/>
<path d="M974.32 907.759C974.32 907.759 981.514 924.149 976.506 938.144" stroke="#DFDAD5" stroke-width="0.5" stroke-linejoin="bevel"/>
<path d="M981.378 886.276C981.378 886.276 990.35 901.02 985.328 915.015" stroke="#DFDAD5" stroke-width="0.5" stroke-linejoin="bevel"/>
<path d="M984.853 881.607C1005.02 866.087 1009.6 837.893 966.231 820.835C924.44 755.544 1062.49 629.822 957.599 537.168C913.582 493.318 960.761 505.162 977.605 451.715" stroke="#DFDAD5" stroke-width="0.5" stroke-linejoin="bevel"/>
<path d="M633.766 820.223C643.172 829.793 666.572 829.684 666.572 829.684" stroke="#DFDAD5" stroke-width="0.5" stroke-linejoin="bevel"/>
<path d="M639.277 806.718C666.409 838.765 692.536 838.315 699.499 835.511" stroke="#DFDAD5" stroke-width="0.5" stroke-linejoin="bevel"/>
<path d="M649.09 752.141C647.8 845.068 761.662 865.039 778.588 828.078" stroke="#DFDAD5" stroke-width="0.5" stroke-linejoin="bevel"/>
<path d="M693.948 730.332C682.75 796.861 779.768 858.068 794.712 813.375" stroke="#DFDAD5" stroke-width="0.5" stroke-linejoin="bevel"/>
<path d="M600.445 745.211L522.103 555.301" stroke="#DFDAD5" stroke-width="0.5" stroke-linejoin="bevel"/>
<path d="M511.231 353.819C473.363 319.009 521.479 262.403 582.176 258.659C695.359 251.689 770.037 364.764 825.169 425.059" stroke="#DFDAD5" stroke-width="0.5" stroke-linejoin="bevel"/>
<path d="M519.307 285.029C555.533 283.014 573.72 324.536 551.271 355.806" stroke="#DFDAD5" stroke-width="0.5" stroke-linejoin="bevel"/>
<path d="M572.539 259.708C614.344 281.34 618.456 336.666 600.988 362.885" stroke="#DFDAD5" stroke-width="0.5" stroke-linejoin="bevel"/>
<path d="M649.253 268.802C659.935 313.005 656.528 359.85 637.947 371.598" stroke="#DFDAD5" stroke-width="0.5" stroke-linejoin="bevel"/>
<path d="M700.232 296.505C702.662 348.142 693.242 374.757 681.054 385.307" stroke="#DFDAD5" stroke-width="0.5" stroke-linejoin="bevel"/>
<path d="M755.568 345.814C758.622 378.555 728.246 403.127 728.246 403.127" stroke="#DFDAD5" stroke-width="0.5" stroke-linejoin="bevel"/>
<path d="M794.536 389.718C790.477 406.803 781.194 417.435 774.814 419.301" stroke="#DFDAD5" stroke-width="0.5" stroke-linejoin="bevel"/>
<path d="M239.776 441.872C281.2 432.342 288.503 487.015 246.346 488.567C256.213 510.866 242.002 526.29 218.426 528.142C237.645 557.656 203.714 572.74 188.498 572.073C194.348 579.111 193.846 598.402 179.527 605.59C199.655 612.015 194.905 629.386 190.344 635.036C215.006 630.68 237.279 646.88 229.8 680.914" stroke="#DFDAD5" stroke-width="0.5" stroke-linejoin="bevel"/>
<path d="M217.911 462.605C212.984 470.651 216.105 477.199 216.105 477.199C206.74 476.587 201.501 480.889 201.501 480.889" stroke="#DFDAD5" stroke-width="0.5" stroke-linejoin="bevel"/>
<path d="M974.171 438.591C974.171 438.591 988.87 441.994 995.304 432.479" stroke="#DFDAD5" stroke-width="0.5" stroke-linejoin="bevel"/>
<path d="M976.166 424.406C976.166 424.406 989.685 427.332 996.023 418.184" stroke="#DFDAD5" stroke-width="0.5" stroke-linejoin="bevel"/>
<path d="M977.388 410.574C977.388 410.574 990.961 413.038 996.037 403.917" stroke="#DFDAD5" stroke-width="0.5" stroke-linejoin="bevel"/>
<path d="M979.084 397.26C979.084 397.26 991.68 398.281 996.471 388.261" stroke="#DFDAD5" stroke-width="0.5" stroke-linejoin="bevel"/>
<path d="M980.482 383.047C980.482 383.047 993.376 383.047 997.693 371.884" stroke="#DFDAD5" stroke-width="0.5" stroke-linejoin="bevel"/>
<path d="M981.527 367.936C981.527 367.936 992.209 368.44 998.303 354.445" stroke="#DFDAD5" stroke-width="0.5" stroke-linejoin="bevel"/>
<path d="M981.853 351.559C981.853 351.559 995.155 350.307 998.303 338.286" stroke="#DFDAD5" stroke-width="0.5" stroke-linejoin="bevel"/>
<path d="M981.242 336.42C981.242 336.42 997.068 330.567 995.982 322.221" stroke="#DFDAD5" stroke-width="0.5" stroke-linejoin="bevel"/>
<path d="M980.007 323.733C980.007 323.733 994.218 316.871 993.119 307.519" stroke="#DFDAD5" stroke-width="0.5" stroke-linejoin="bevel"/>
<path d="M976.628 310.745C983.292 307.968 990.391 300.086 988.83 293.769" stroke="#DFDAD5" stroke-width="0.5" stroke-linejoin="bevel"/>
<path d="M901.055 362.545C921.455 346.222 941.583 369.692 933.439 394.17C925.879 422.391 889.464 425.862 884.523 396.852" stroke="#DFDAD5" stroke-width="0.5" stroke-linejoin="bevel"/>
<path d="M983.197 280.618C984.636 285.22 980.591 295.335 973.343 297.962" stroke="#DFDAD5" stroke-width="0.5" stroke-linejoin="bevel"/>
<path d="M976.628 265.847C977.849 268.08 977.985 280.564 968.267 285.301" stroke="#DFDAD5" stroke-width="0.5" stroke-linejoin="bevel"/>
<path d="M969.163 254.997C970.153 257.475 968.837 271.116 962.553 273.73" stroke="#DFDAD5" stroke-width="0.5" stroke-linejoin="bevel"/>
<path d="M962.254 241.561C963.245 244.038 961.928 257.679 955.644 260.293" stroke="#DFDAD5" stroke-width="0.5" stroke-linejoin="bevel"/>
<path d="M955.346 228.873C956.336 231.35 955.02 244.991 948.736 247.605" stroke="#DFDAD5" stroke-width="0.5" stroke-linejoin="bevel"/>
<path d="M944.881 215.64C946.265 217.914 947.188 231.595 941.433 235.217" stroke="#DFDAD5" stroke-width="0.5" stroke-linejoin="bevel"/>
<path d="M934.593 204.082C935.977 206.356 936.9 220.037 931.145 223.659" stroke="#DFDAD5" stroke-width="0.5" stroke-linejoin="bevel"/>
<path d="M922.214 194.771C923.843 196.881 926.259 210.385 920.925 214.606" stroke="#DFDAD5" stroke-width="0.5" stroke-linejoin="bevel"/>
<path d="M910.555 185.418C912.184 187.528 914.6 201.033 909.266 205.253" stroke="#DFDAD5" stroke-width="0.5" stroke-linejoin="bevel"/>
<path d="M898.041 176.555C899.67 178.666 902.086 192.17 896.752 196.391" stroke="#DFDAD5" stroke-width="0.5" stroke-linejoin="bevel"/>
<path d="M883.22 168.033C885.107 169.912 889.287 182.967 884.564 187.868" stroke="#DFDAD5" stroke-width="0.5" stroke-linejoin="bevel"/>
<path d="M867.068 160.845C869.118 162.533 874.479 175.153 870.217 180.462" stroke="#DFDAD5" stroke-width="0.5" stroke-linejoin="bevel"/>
<path d="M851.351 154.025C853.401 155.713 858.762 168.333 854.5 173.642" stroke="#DFDAD5" stroke-width="0.5" stroke-linejoin="bevel"/>
<path d="M834.548 148.389C836.598 150.077 841.959 162.697 837.697 168.006" stroke="#DFDAD5" stroke-width="0.5" stroke-linejoin="bevel"/>
<path d="M817.609 143.216C819.659 144.904 825.02 157.524 820.758 162.833" stroke="#DFDAD5" stroke-width="0.5" stroke-linejoin="bevel"/>
<path d="M800.046 138.886C802.163 140.493 808.027 152.895 803.982 158.368" stroke="#DFDAD5" stroke-width="0.5" stroke-linejoin="bevel"/>
<path d="M781.275 136.817C783.501 138.274 790.206 150.227 786.541 155.972" stroke="#DFDAD5" stroke-width="0.5" stroke-linejoin="bevel"/>
<path d="M762.572 134.625C764.893 135.919 772.439 147.354 769.209 153.358" stroke="#DFDAD5" stroke-width="0.5" stroke-linejoin="bevel"/>
<path d="M744.208 132.855C746.529 134.149 754.075 145.584 750.845 151.588" stroke="#DFDAD5" stroke-width="0.5" stroke-linejoin="bevel"/>
<path d="M728.192 131.889C730.513 133.182 738.059 144.618 734.829 150.621" stroke="#DFDAD5" stroke-width="0.5" stroke-linejoin="bevel"/>
<path d="M711.755 131.889C714.076 133.182 721.623 144.618 718.392 150.621" stroke="#DFDAD5" stroke-width="0.5" stroke-linejoin="bevel"/>
<path d="M693.839 131.889C696.16 133.182 703.707 144.618 700.476 150.621" stroke="#DFDAD5" stroke-width="0.5" stroke-linejoin="bevel"/>
<path d="M676.656 132.883C678.977 134.176 686.524 145.612 683.293 151.615" stroke="#DFDAD5" stroke-width="0.5" stroke-linejoin="bevel"/>
<path d="M657.994 133.754C660.315 135.047 667.861 146.483 664.631 152.487" stroke="#DFDAD5" stroke-width="0.5" stroke-linejoin="bevel"/>
<path d="M638.49 135.66C640.811 136.953 648.357 148.389 645.127 154.392" stroke="#DFDAD5" stroke-width="0.5" stroke-linejoin="bevel"/>
<path d="M618.985 137.58C621.306 138.873 628.853 150.308 625.623 156.312" stroke="#DFDAD5" stroke-width="0.5" stroke-linejoin="bevel"/>
<path d="M599.482 139.499C601.802 140.792 609.349 152.228 606.119 158.231" stroke="#DFDAD5" stroke-width="0.5" stroke-linejoin="bevel"/>
<path d="M579.977 141.418C582.298 142.712 589.845 154.147 586.615 160.151" stroke="#DFDAD5" stroke-width="0.5" stroke-linejoin="bevel"/>
<path d="M560.473 143.324C562.794 144.618 570.341 156.053 567.11 162.057" stroke="#DFDAD5" stroke-width="0.5" stroke-linejoin="bevel"/>
<path d="M540.983 145.244C543.304 146.537 550.85 157.973 547.62 163.976" stroke="#DFDAD5" stroke-width="0.5" stroke-linejoin="bevel"/>
<path d="M520.352 149.069C522.673 150.363 530.22 161.798 526.989 167.802" stroke="#DFDAD5" stroke-width="0.5" stroke-linejoin="bevel"/>
<path d="M499.315 152.908C501.636 154.202 509.182 165.637 505.952 171.641" stroke="#DFDAD5" stroke-width="0.5" stroke-linejoin="bevel"/>
<path d="M478.399 155.59C480.72 156.884 488.266 168.319 485.036 174.323" stroke="#DFDAD5" stroke-width="0.5" stroke-linejoin="bevel"/>
<path d="M457.361 159.715C459.682 161.009 467.229 172.444 463.998 178.448" stroke="#DFDAD5" stroke-width="0.5" stroke-linejoin="bevel"/>
<path d="M436.038 164.943C438.359 166.236 445.906 177.672 442.675 183.675" stroke="#DFDAD5" stroke-width="0.5" stroke-linejoin="bevel"/>
<path d="M414.688 169.082C417.009 170.375 424.556 181.81 421.326 187.814" stroke="#DFDAD5" stroke-width="0.5" stroke-linejoin="bevel"/>
<path d="M395.32 172.88C397.641 174.173 405.188 185.608 401.957 191.612" stroke="#DFDAD5" stroke-width="0.5" stroke-linejoin="bevel"/>
<path d="M374.92 178.448C377.241 179.741 381.87 186.48 381.082 195.846" stroke="#DFDAD5" stroke-width="0.5" stroke-linejoin="bevel"/>
<path d="M356.434 185.05C358.036 187.814 361.443 190.945 360.655 200.311" stroke="#DFDAD5" stroke-width="0.5" stroke-linejoin="bevel"/>
<path d="M613.394 730.904C613.394 730.904 623.37 743.483 633.061 744.558" stroke="#DFDAD5" stroke-width="0.5" stroke-linejoin="bevel"/>
<path d="M628.704 724.41C628.704 724.41 638.68 736.989 648.371 738.064" stroke="#DFDAD5" stroke-width="0.5" stroke-linejoin="bevel"/>
<path d="M645.765 717.589C645.765 717.589 655.741 730.168 665.432 731.244" stroke="#DFDAD5" stroke-width="0.5" stroke-linejoin="bevel"/>
<path d="M661.034 709.952C661.034 709.952 671.01 722.531 680.701 723.607" stroke="#DFDAD5" stroke-width="0.5" stroke-linejoin="bevel"/>
<path d="M678.176 703.118C678.176 703.118 688.152 715.697 697.843 716.772" stroke="#DFDAD5" stroke-width="0.5" stroke-linejoin="bevel"/>
<path d="M695.319 696.298C695.319 696.298 705.295 708.877 714.986 709.952" stroke="#DFDAD5" stroke-width="0.5" stroke-linejoin="bevel"/>
<path d="M960.585 835.497C975.406 847.137 975.583 864.208 965.864 874.5" stroke="#DFDAD5" stroke-width="0.5" stroke-linejoin="bevel"/>
<path d="M883.803 291.386C896.426 259.462 941.447 270.313 940.415 305.082C940.768 326.496 919.541 342.465 900.362 334.351" stroke="#DFDAD5" stroke-width="0.5" stroke-linejoin="bevel"/>
<path d="M819.129 241.71C822.034 175.249 913.094 231.432 861.205 265.847" stroke="#DFDAD5" stroke-width="0.5" stroke-linejoin="bevel"/>
<path d="M736.526 224.993C725.952 159.974 817.691 174.5 791.55 232.494" stroke="#DFDAD5" stroke-width="0.5" stroke-linejoin="bevel"/>
<path d="M653.786 224.775C633.237 163.949 729.644 161.853 712.013 223.917" stroke="#DFDAD5" stroke-width="0.5" stroke-linejoin="bevel"/>
<path d="M577.48 231.296C554.271 213.87 569.336 184.56 599.359 185.622C625.215 184.792 638.503 208.738 626.423 226.64" stroke="#DFDAD5" stroke-width="0.5" stroke-linejoin="bevel"/>
<path d="M496.247 243.507C471.667 230.397 487.683 196.214 515.425 197.194C536.653 196.813 553.158 218.935 541.77 236.102" stroke="#DFDAD5" stroke-width="0.5" stroke-linejoin="bevel"/>
<path d="M413.005 259.163C375.843 217.982 470.391 189.107 464.514 249.279" stroke="#DFDAD5" stroke-width="0.5" stroke-linejoin="bevel"/>
<path d="M328.271 273.934C299.917 259.299 314.752 228.042 345.942 229.118C369.41 228.968 386.484 247.101 374.907 265.847" stroke="#DFDAD5" stroke-width="0.5" stroke-linejoin="bevel"/>
<path d="M223.421 275.853C202.858 219.806 309.608 226.436 275.133 278.916" stroke="#DFDAD5" stroke-width="0.5" stroke-linejoin="bevel"/>
<path d="M140.587 226.313C165.357 190.251 234.374 236.156 181.956 262.049" stroke="#DFDAD5" stroke-width="0.5" stroke-linejoin="bevel"/>
<path d="M105.922 145.244C158.285 126.008 178.251 199.875 125.724 202.285" stroke="#DFDAD5" stroke-width="0.5" stroke-linejoin="bevel"/>
<path d="M121.802 65.1003C168.18 74.6571 150.902 135.251 104.144 121.828" stroke="#DFDAD5" stroke-width="0.5" stroke-linejoin="bevel"/>
<path d="M182.54 15.9958C226.461 41.7257 162.099 82.8117 140.546 43.1687" stroke="#DFDAD5" stroke-width="0.5" stroke-linejoin="bevel"/>
<path d="M258.995 0.35376C261.425 27.9759 218.644 30.93 206.74 7.31034" stroke="#DFDAD5" stroke-width="0.5" stroke-linejoin="bevel"/>
<path d="M336.265 23.2249C324.497 48.2059 281.418 31.7334 285.829 2.84521" stroke="#DFDAD5" stroke-width="0.5" stroke-linejoin="bevel"/>
<path d="M309.608 82.0902C250.472 34.8781 163.715 94.2064 190.86 160.559" stroke="#DFDAD5" stroke-width="0.5" stroke-linejoin="bevel"/>
<path d="M343.486 660.358C325.977 654.994 308.278 671.643 309.785 680.832C299.076 679.852 277.997 703.526 287.39 721.034" stroke="#DFDAD5" stroke-width="0.5" stroke-linejoin="bevel"/>
<path d="M355.308 668.267C337.799 662.903 320.1 679.553 321.607 688.742C310.898 687.762 289.819 711.436 299.211 728.943" stroke="#DFDAD5" stroke-width="0.5" stroke-linejoin="bevel"/>
<path d="M368.446 675.741C350.937 670.377 333.238 687.027 334.745 696.216C324.036 695.236 302.957 718.91 312.35 736.417" stroke="#DFDAD5" stroke-width="0.5" stroke-linejoin="bevel"/>
<path d="M175.143 516.72C175.143 516.72 178.902 513.888 183.843 514.787C183.843 514.787 179.839 509.559 182.079 506.374" stroke="#DFDAD5" stroke-width="0.5" stroke-linejoin="bevel"/>
<path d="M145.731 715.738C158.367 681.962 128.127 677.211 116.916 681.717C79.2649 696.856 59.8965 741.699 70.144 790.368C84.4089 858.11 133.882 872.867 137.981 928.628C137.981 928.628 148.54 897.984 130.95 865.665C91.5211 793.227 127.082 765.605 145.731 715.724V715.738Z" stroke="#DFDAD5" stroke-width="0.5" stroke-linejoin="bevel"/>
<path d="M440.097 608.013C440.097 608.013 401.699 549.025 346.39 534.281C314.264 525.718 250.797 531.545 227.072 575.327C208.274 610.028 238.243 625.085 272.324 599.001C361.09 531.055 440.11 607.999 440.11 607.999L440.097 608.013Z" stroke="#DFDAD5" stroke-width="0.5" stroke-linejoin="bevel"/>
<path d="M464.541 613.567C447.738 514.011 421.448 466.227 329.044 468.214C253.498 469.834 311.508 374.988 411.282 432.955C503.631 486.606 464.541 613.567 464.541 613.567V613.567Z" stroke="#DFDAD5" stroke-width="0.5" stroke-linejoin="bevel"/>
<path d="M633.658 510.458C568.807 565.198 611.127 612.805 608.358 673.372" stroke="#DFDAD5" stroke-width="0.5" stroke-linejoin="bevel"/>
<path d="M633.061 547.01C595.966 598.701 625.704 619.53 618.741 689.559" stroke="#DFDAD5" stroke-width="0.5" stroke-linejoin="bevel"/>
<path d="M677.281 555.301C654.275 607.754 675.394 615.8 672.91 649.943" stroke="#DFDAD5" stroke-width="0.5" stroke-linejoin="bevel"/>
<path d="M690.704 571.134C670.331 615.746 682.397 621.94 678.176 662.359" stroke="#DFDAD5" stroke-width="0.5" stroke-linejoin="bevel"/>
<path d="M710.018 642.741C798.675 674.094 798.662 565.13 849.763 528.509C798.879 593.61 854.378 709.952 734.191 708.046" stroke="#DFDAD5" stroke-width="0.5" stroke-linejoin="bevel"/>
<path d="M919.337 465.56C902.996 518.109 868.724 518.884 863.811 585.469" stroke="#DFDAD5" stroke-width="0.5" stroke-linejoin="bevel"/>
<path d="M914.668 528.496C921.414 571.134 882.012 594.386 883.03 634.628" stroke="#DFDAD5" stroke-width="0.5" stroke-linejoin="bevel"/>
<path d="M933.073 555.301C932.815 610.191 885.365 608.217 885.88 692.826" stroke="#DFDAD5" stroke-width="0.5" stroke-linejoin="bevel"/>
<path d="M944.23 605.767C941.814 654.245 907.298 664.686 906.009 702.723" stroke="#DFDAD5" stroke-width="0.5" stroke-linejoin="bevel"/>
<path d="M951.735 664.061C950.174 707.692 906.009 712.92 906.009 806.745" stroke="#DFDAD5" stroke-width="0.5" stroke-linejoin="bevel"/>
<path d="M288.407 646.186C273.953 637.201 279.653 597.313 305.265 603.507C330.877 609.688 347.218 631.306 347.218 631.306" stroke="#DFDAD5" stroke-width="0.5" stroke-linejoin="bevel"/>
<path d="M503.726 886.576C503.726 886.576 509.576 893.029 531.536 898.379C531.536 898.379 529.772 889.421 523.243 879.755C521.167 876.692 518.615 873.547 515.48 870.593" stroke="#DFDAD5" stroke-width="0.5" stroke-linejoin="bevel"/>
<path d="M555.94 820.25C555.94 820.25 564.776 829.671 578.227 839.84C578.227 839.84 580.846 826.648 569.011 809.522" stroke="#DFDAD5" stroke-width="0.5" stroke-linejoin="bevel"/>
</svg>
