<svg width="205" height="267" viewBox="0 0 205 267" fill="none" xmlns="http://www.w3.org/2000/svg">
<g clip-path="url(#clip0_400_2979)">
<path d="M23.8051 208.815C-6.14278 200.513 5.17696 152.468 5.17696 152.468C4.13884 145.106 7.58265 132.592 13.3879 126.629C19.4256 118.091 29.7321 116.138 35.7948 106.469C51.0179 82.0744 76.1516 71.697 104.818 72.2083H104.984C97.2602 65.1039 107.074 53.5512 119.454 52.7899C142.539 51.3673 157.771 74.4449 169.016 86.7505C171.704 86.4949 174.386 85.7114 177.157 84.2222C182.47 81.3659 185.429 75.4118 184.554 69.4271C182.91 58.1828 174.896 46.2523 145.936 45.6994C83.2081 44.5019 37.3312 78.6375 23.2681 33.5743C12.3304 -1.48933 72.802 -12.8253 77.1842 18.0096C79.1138 31.5878 74.5349 38.8311 68.1927 41.7762C68.1927 41.7762 92.8087 31.435 140.316 29.39C187.824 27.3451 211.667 52.9094 200.11 92.1962C196.389 103.01 187.054 100.687 196.029 109.636C217.423 128.546 189.263 154.202 197.79 167.53C206.635 171.009 205.702 176.766 201.588 179.933C201.588 179.933 199.783 187.499 197.9 192.822C196.018 198.146 192.331 203.316 192.331 203.316C195.013 216.992 178.636 223.29 177.553 231.373C176.158 231.728 174.84 231.745 173.619 231.498C173.392 231.451 173.168 231.395 172.947 231.331L172.963 231.337C172 232.612 172.415 235.149 172.415 235.149C167.501 236.516 163.183 234.226 160.124 230.484C151.323 227.522 148.829 220.723 148.94 215.008L148.934 215.072C144.574 210.832 148.181 200.935 150.797 199.538C150.797 197.787 152.716 193.5 164.988 189.533C167.659 180.192 166.059 172.895 162.803 166.008C162.225 167.741 161.04 168.694 159.517 169.008C157.649 173.093 149.983 173.771 143.386 170.525C142.462 170.898 139.882 171.067 136.668 169.336C136.668 169.336 131.895 169.359 129.976 167.405C127.839 175.677 117.497 183.751 112.702 197.368C112.135 198.979 111.877 200.677 111.808 202.383C111.57 208.356 106.423 210.182 106.423 210.182C102.797 222.157 85.5059 238.8 85.5059 238.8C87.2029 246.782 82.0482 254.089 77.5469 258.929C72.1985 264.681 66.9912 262.383 58.4481 266.895C57.792 265.853 57.3934 264.536 57.2107 263.086C54.4008 263.511 51.2311 264.153 49.1797 265.217C49.0302 264.961 48.8724 264.325 48.7368 263.43C47.1782 263.444 45.3179 264.767 45.3179 264.767C42.9426 262.508 41.6581 257.062 42.6907 251.419L42.6437 251.686C40.321 243.89 44.3324 236.571 46.5387 235.179C48.9942 225.71 61.5487 226.28 63.0491 212.063L63.0408 212.041C58.689 213.763 54.2901 215.155 49.6476 215.369C48.9167 240.342 29.1397 240.458 29.7017 254.967C27.894 255.403 26.3077 255.378 24.9318 255.006C24.2619 255.545 22.7199 257.004 23.0798 258.979C18.0331 260.227 14.5367 257.804 12.3774 253.917C6.59158 252.272 3.79279 247.126 3.76234 241.111C3.76234 241.111 -3.80353 230.778 5.17696 223.413C5.17696 223.413 4.72849 218.145 17.676 211.81C22.2189 209.737 23.8051 208.818 23.8051 208.818V208.815Z" fill="black"/>
<path d="M62.6394 161.244C74.7808 168.411 83.9041 158.782 83.9041 158.782" stroke="#AEAEAE" stroke-width="0.7" stroke-linejoin="bevel"/>
<path d="M89.8626 153.533C93.5009 139.43 88.0823 132.919 88.0823 132.919" stroke="#AEAEAE" stroke-width="0.7" stroke-linejoin="bevel"/>
<path d="M90.04 136.826C90.8762 134.867 92.8947 131.382 94.4259 129.209" stroke="#AEAEAE" stroke-width="0.7" stroke-linejoin="bevel"/>
<path d="M81.761 160.562C102.181 182.093 115.43 165.594 102.048 156.363C101.187 155.768 100.246 155.296 99.2795 154.898C96.4386 153.734 92.3767 151.102 90.7542 149.168" stroke="#AEAEAE" stroke-width="0.7" stroke-linejoin="bevel"/>
<path d="M64.7078 163.895C62.5675 179.541 89.9458 179.191 82.6 161.428" stroke="#AEAEAE" stroke-width="0.7" stroke-linejoin="bevel"/>
<path d="M59.0012 166.93L66.3996 162.998" stroke="#AEAEAE" stroke-width="0.7" stroke-linejoin="bevel"/>
<path d="M91.2168 134.453C105.69 135.298 106.224 152.16 94.221 152.11" stroke="#AEAEAE" stroke-width="0.7" stroke-linejoin="bevel"/>
<path d="M74.2796 178.527C59.7321 175.945 52.4002 181.011 64.9762 188.489" stroke="#AEAEAE" stroke-width="0.7" stroke-linejoin="bevel"/>
<path d="M75.8164 178.363C75.6475 179.236 75.5368 181.137 73.6899 181.606" stroke="#AEAEAE" stroke-width="0.7" stroke-linejoin="bevel"/>
<path d="M105.692 139.16C106.041 139.977 107.013 141.611 105.748 143.04" stroke="#AEAEAE" stroke-width="0.7" stroke-linejoin="bevel"/>
<path d="M108.062 140.525C108.311 141.376 109.087 143.115 107.664 144.385" stroke="#AEAEAE" stroke-width="0.7" stroke-linejoin="bevel"/>
<path d="M110.38 142.251C110.629 143.101 111.017 145.044 109.594 146.314" stroke="#AEAEAE" stroke-width="0.7" stroke-linejoin="bevel"/>
<path d="M112.374 144.282C112.623 145.133 113.01 147.075 111.587 148.345" stroke="#AEAEAE" stroke-width="0.7" stroke-linejoin="bevel"/>
<path d="M78.325 178.835C78.325 179.752 78.0453 181.608 76.1985 182.078" stroke="#AEAEAE" stroke-width="0.7" stroke-linejoin="bevel"/>
<path d="M80.6785 179.052C80.7809 179.983 80.3988 181.825 78.552 182.295" stroke="#AEAEAE" stroke-width="0.7" stroke-linejoin="bevel"/>
<path d="M82.9075 179.355C82.7386 180.228 82.6278 182.129 80.781 182.598" stroke="#AEAEAE" stroke-width="0.7" stroke-linejoin="bevel"/>
<path d="M85.139 179.622C84.9923 180.497 84.9314 182.401 83.0984 182.918" stroke="#AEAEAE" stroke-width="0.7" stroke-linejoin="bevel"/>
<path d="M87.3044 179.753C87.2103 180.637 87.2601 182.54 85.4631 183.165" stroke="#AEAEAE" stroke-width="0.7" stroke-linejoin="bevel"/>
<path d="M89.3089 179.861C89.2701 180.748 89.439 182.646 87.6836 183.382" stroke="#AEAEAE" stroke-width="0.7" stroke-linejoin="bevel"/>
<path d="M91.5379 179.558C91.5794 180.458 91.9947 182.598 90.3279 183.384" stroke="#AEAEAE" stroke-width="0.7" stroke-linejoin="bevel"/>
<path d="M71.3945 178.104C71.3945 178.104 68.3017 187.042 62.4844 190.379C74.6313 190.571 77.7933 182.326 77.7933 182.326" stroke="#AEAEAE" stroke-width="0.7" stroke-linejoin="bevel"/>
<path d="M87.75 195.673C88.1293 194.947 88.6277 189.564 88.6277 189.564C88.6277 189.564 91.2498 191.56 91.5378 195.606" stroke="#AEAEAE" stroke-width="0.7" stroke-linejoin="bevel"/>
<path d="M91.0063 193.075C91.0063 193.075 94.8163 191.01 95.9155 194.815" stroke="#AEAEAE" stroke-width="0.7" stroke-linejoin="bevel"/>
<path d="M94.7747 193.002C96.8624 190.212 99.9745 190.581 100.26 193.794" stroke="#AEAEAE" stroke-width="0.7" stroke-linejoin="bevel"/>
<path d="M99.5315 191.869C100.528 190.029 103.048 190.029 104.421 191.183" stroke="#AEAEAE" stroke-width="0.7" stroke-linejoin="bevel"/>
<path d="M103.474 193.425C105.274 190.288 104.784 187.236 104.784 187.236C107.755 189.562 107.334 194.434 107.334 194.434" stroke="#AEAEAE" stroke-width="0.7" stroke-linejoin="bevel"/>
<path d="M70.3867 180.523C61.46 179.872 61.2634 184.13 66.4356 186.925" stroke="#AEAEAE" stroke-width="0.7" stroke-linejoin="bevel"/>
<path d="M71.2948 188.653C79.1943 191.607 79.4878 193.091 84.4828 194.886C87.0938 195.826 89.9098 196.04 92.6343 195.526C98.4433 194.428 105.008 191.652 108.054 195.089C108.442 195.526 108.275 196.245 107.724 196.434C105.767 197.107 99.6367 195.37 92.1497 198.121C83.6605 200.619 76.1957 191.154 68.1411 189.773" stroke="#AEAEAE" stroke-width="0.7" stroke-linejoin="bevel"/>
<path d="M49.0169 188.967C37.7975 175.998 48.2859 167.886 58.5943 170.857C39.1238 153.547 25.9663 175.851 49.0169 188.967Z" stroke="#AEAEAE" stroke-width="0.7" stroke-linejoin="bevel"/>
<path d="M89.1539 129.879C51.2734 121.765 35.1975 153.589 35.1975 153.589" stroke="#AEAEAE" stroke-width="0.7" stroke-linejoin="bevel"/>
<path d="M107.708 196.44C110.059 200.367 106.454 205.708 100.611 207.122C84.8484 210.315 83.3975 201.048 74.6231 202.076C62.4402 203.941 44.415 198.288 41.6572 194.564" stroke="#AEAEAE" stroke-width="0.7" stroke-linejoin="bevel"/>
<path d="M94.1904 169.815C95.3118 165.332 99.3986 164.224 99.3986 164.224C98.8725 161.244 102.583 157.471 103.411 157.398" stroke="#AEAEAE" stroke-width="0.7" stroke-linejoin="bevel"/>
<path d="M97.6016 170.88C99.3293 167.706 101.821 169.04 102.854 170.766" stroke="#AEAEAE" stroke-width="0.7" stroke-linejoin="bevel"/>
<path d="M107.337 166.042C103.516 163.338 103.873 161.081 105.903 160.147" stroke="#AEAEAE" stroke-width="0.7" stroke-linejoin="bevel"/>
<path d="M99.3987 164.227C99.3987 164.227 103.746 165.346 105.825 168.992" stroke="#AEAEAE" stroke-width="0.7" stroke-linejoin="bevel"/>
<path d="M67.8892 176.735C47.7431 161.867 33.7577 186.995 64.0765 193.533C52.6772 187.92 48.8645 174.231 67.8892 176.735Z" stroke="#AEAEAE" stroke-width="0.7" stroke-linejoin="bevel"/>
<path d="M90.6822 168.009C88.3923 173.244 87.7084 174.575 80.9829 174.239C87.5617 178.216 94.1654 179.672 96.4967 170.615" stroke="#AEAEAE" stroke-width="0.7" stroke-linejoin="bevel"/>
<path d="M99.7613 171.14C99.8029 173.672 98.6289 177.448 93.1272 179.449C93.8471 179.188 107.201 179.444 102.095 170.951" stroke="#AEAEAE" stroke-width="0.7" stroke-linejoin="bevel"/>
<path d="M100.528 155.465C102.043 154.431 108.082 149.504 104.446 144.896C109.278 151.018 108.45 156.246 104.599 158.516" stroke="#AEAEAE" stroke-width="0.7" stroke-linejoin="bevel"/>
<path d="M106.639 161.434C111.1 160.147 113.356 152.497 111.028 150.168C115.444 154.584 116.158 167.125 107.45 164.099" stroke="#AEAEAE" stroke-width="0.7" stroke-linejoin="bevel"/>
<path d="M102.043 182.595C105.803 179.171 109.729 169.537 118.332 164.218" stroke="#AEAEAE" stroke-width="0.7" stroke-linejoin="bevel"/>
<path d="M116.239 165.658C110.961 166.67 105.399 170.819 104.114 180.209" stroke="#AEAEAE" stroke-width="0.7" stroke-linejoin="bevel"/>
<path d="M107.456 179.583C109.746 180.664 111.764 176.401 108.145 174.434" stroke="#AEAEAE" stroke-width="0.7" stroke-linejoin="bevel"/>
<path d="M111.1 170.766C113.769 172.655 113.221 177.468 109.865 176.173" stroke="#AEAEAE" stroke-width="0.7" stroke-linejoin="bevel"/>
<path d="M112.623 172.933C112.623 172.933 116.507 172.658 115.854 169.104" stroke="#AEAEAE" stroke-width="0.7" stroke-linejoin="bevel"/>
<path d="M82.2815 166.605C82.3452 170.94 75.5615 170.94 75.6252 166.605C75.5615 162.27 82.3452 162.27 82.2815 166.605Z" stroke="#AEAEAE" stroke-width="0.7" stroke-linejoin="bevel"/>
<path d="M98.9778 142.821C99.0415 147.156 92.2578 147.156 92.3215 142.821C92.2578 138.486 99.0415 138.486 98.9778 142.821Z" stroke="#AEAEAE" stroke-width="0.7" stroke-linejoin="bevel"/>
<path d="M34.2671 175.589C33.0571 175.553 30.46 174.792 30.4434 173.219" stroke="#AEAEAE" stroke-width="0.7" stroke-linejoin="bevel"/>
<path d="M34.2671 172.421C33.0571 172.385 30.46 171.624 30.4434 170.051" stroke="#AEAEAE" stroke-width="0.7" stroke-linejoin="bevel"/>
<path d="M34.6714 178.733C33.1292 178.733 30.8643 177.935 30.8477 176.362" stroke="#AEAEAE" stroke-width="0.7" stroke-linejoin="bevel"/>
<path d="M35.1283 181.747C33.6082 181.856 31.407 181.183 31.3904 179.61" stroke="#AEAEAE" stroke-width="0.7" stroke-linejoin="bevel"/>
<path d="M35.8563 184.835C34.3363 184.944 32.135 184.271 32.1184 182.698" stroke="#AEAEAE" stroke-width="0.7" stroke-linejoin="bevel"/>
<path d="M37.0304 187.865C35.5103 187.973 33.3091 187.3 33.2925 185.728" stroke="#AEAEAE" stroke-width="0.7" stroke-linejoin="bevel"/>
<path d="M38.005 190.783C36.4849 190.891 34.2837 190.218 34.2671 188.646" stroke="#AEAEAE" stroke-width="0.7" stroke-linejoin="bevel"/>
<path d="M40.0263 194.031C38.5062 194.139 36.3049 193.466 36.2883 191.894" stroke="#AEAEAE" stroke-width="0.7" stroke-linejoin="bevel"/>
<path d="M39.5445 154.014C33.6911 152.817 26.7053 153.914 28.8595 160.245C26.9379 162.084 25.6172 165.333 32.8632 169.257" stroke="#AEAEAE" stroke-width="0.7" stroke-linejoin="bevel"/>
<path d="M40.1758 157.466C32.7581 155.331 25.1631 159.036 38.2127 162.629" stroke="#AEAEAE" stroke-width="0.7" stroke-linejoin="bevel"/>
<path d="M37.7864 164.321C32.1186 162.328 25.933 164.485 35.8787 167.989" stroke="#AEAEAE" stroke-width="0.7" stroke-linejoin="bevel"/>
<path d="M82.6055 128.826C86.1025 127.37 106.282 127.57 102.527 142.821" stroke="#AEAEAE" stroke-width="0.7" stroke-linejoin="bevel"/>
<path d="M71.9399 151.091C71.9399 151.091 78.372 154.053 79.8782 159.572" stroke="#AEAEAE" stroke-width="0.7" stroke-linejoin="bevel"/>
<path d="M67.4241 151.558C67.4241 151.558 76.0352 154.678 76.6083 159.572" stroke="#AEAEAE" stroke-width="0.7" stroke-linejoin="bevel"/>
<path d="M62.4651 152.497C62.4651 152.497 74.1358 155.479 74.2797 159.572" stroke="#AEAEAE" stroke-width="0.7" stroke-linejoin="bevel"/>
<path d="M57.6196 156.576C57.6196 156.576 68.0997 154.792 72.3028 160.072" stroke="#AEAEAE" stroke-width="0.7" stroke-linejoin="bevel"/>
<path d="M56.116 160.072C56.116 160.072 66.6486 157.146 68.9828 161.431" stroke="#AEAEAE" stroke-width="0.7" stroke-linejoin="bevel"/>
<path d="M83.0153 130.168C83.0153 130.168 81.3208 136.501 89.1566 140.244" stroke="#AEAEAE" stroke-width="0.7" stroke-linejoin="bevel"/>
<path d="M79.8755 133.105C79.8755 133.105 78.4025 138.527 88.9185 142.657" stroke="#AEAEAE" stroke-width="0.7" stroke-linejoin="bevel"/>
<path d="M78.9507 139.538C78.9507 139.538 80.432 144.36 89.1539 146.105" stroke="#AEAEAE" stroke-width="0.7" stroke-linejoin="bevel"/>
<path d="M81.4648 145.686C81.4648 145.686 85.0893 148.923 89.6025 148.873" stroke="#AEAEAE" stroke-width="0.7" stroke-linejoin="bevel"/>
<path d="M83.9043 204.821C70.1044 206.817 58.6248 217.385 44.3818 215.112" stroke="#AEAEAE" stroke-width="0.7" stroke-linejoin="bevel"/>
<path d="M63.0632 212.094C61.5625 226.314 49.0058 225.744 46.5498 235.214C44.3458 236.604 40.3338 243.926 42.6541 251.724" stroke="#AEAEAE" stroke-width="0.7" stroke-linejoin="bevel"/>
<path d="M23.3799 123.982C12.0332 119.113 3.63256 141.525 5.17757 152.497C6.60629 162.629 11.8173 169.09 13.0854 173.186C7.00224 153.536 8.83244 142.456 22.0841 132.955C26.027 130.129 27.5138 125.83 23.3799 123.982V123.982Z" stroke="#AEAEAE" stroke-width="0.7" stroke-linejoin="bevel"/>
<path d="M43.6868 142.501C38.9853 143.855 33.3092 139.728 34.7767 133.728C29.0728 135.207 24.136 127.298 30.9944 123.646C26.2071 120.881 26.6806 114.312 33.4088 113.789C33.0877 112.7 32.9658 110.902 33.0849 110.085" stroke="#AEAEAE" stroke-width="0.7" stroke-linejoin="bevel"/>
<path d="M13.3901 126.653C19.429 118.113 29.7374 116.159 35.8011 106.489C51.027 82.0896 76.1653 71.7103 104.837 72.2216C144.113 72.5718 158.641 94.2085 177.189 84.2377C182.503 81.381 185.463 75.4257 184.588 69.4399C182.943 58.1936 174.927 46.2608 145.962 45.7078C83.2231 44.5101 37.3379 78.6521 23.2721 33.5805C12.3324 -1.48962 72.815 -12.8277 77.1981 18.0129C82.4118 54.6977 40.1316 45.152 43.8391 29.5233C46.5996 17.8907 57.423 18.93 62.0858 24.0099C66.5713 28.8953 63.0244 40.0443 53.8512 42.3314" stroke="#AEAEAE" stroke-width="0.7" stroke-linejoin="bevel"/>
<path d="M78.6045 75.1813C99.9744 78.0185 104.903 84.8158 101.583 112.166C109.308 98.138 117.424 83.8877 102.948 72.2578" stroke="#AEAEAE" stroke-width="0.7" stroke-linejoin="bevel"/>
<path d="M115.51 72.8662C131.578 84.6989 115.751 104.827 115.51 113.844C121.679 102.99 141.322 89.9956 131.705 76.0926" stroke="#AEAEAE" stroke-width="0.7" stroke-linejoin="bevel"/>
<path d="M142.141 79.5527C153.397 96.6126 134.109 106.175 134.341 116.585C146.826 99.9585 163.522 100.236 153.422 83.8517" stroke="#AEAEAE" stroke-width="0.7" stroke-linejoin="bevel"/>
<path d="M165.693 86.8221C174.523 96.5123 161.961 105.305 160.729 113.844C165.735 103.665 176.439 105.316 179.828 97.2681C181.016 94.4503 180.952 91.2684 179.85 88.4172C179.263 86.9027 178.349 85.3243 176.932 84.3711" stroke="#AEAEAE" stroke-width="0.7" stroke-linejoin="bevel"/>
<path d="M2.30908 158.177C2.30908 158.177 2.55551 161.053 5.1776 162.328" stroke="#AEAEAE" stroke-width="0.7" stroke-linejoin="bevel"/>
<path d="M1.77759 161.431C1.77759 161.431 2.02401 164.307 4.64611 165.582" stroke="#AEAEAE" stroke-width="0.7" stroke-linejoin="bevel"/>
<path d="M1.4895 165.102C1.4895 165.102 1.73593 167.978 4.35802 169.253" stroke="#AEAEAE" stroke-width="0.7" stroke-linejoin="bevel"/>
<path d="M1.4895 168.898C1.4895 168.898 1.73593 171.775 4.35802 173.05" stroke="#AEAEAE" stroke-width="0.7" stroke-linejoin="bevel"/>
<path d="M1.4729 173.142C1.4729 173.142 1.91315 175.993 4.61831 177.085" stroke="#AEAEAE" stroke-width="0.7" stroke-linejoin="bevel"/>
<path d="M1.57544 177.073C1.57544 177.073 2.10983 179.911 4.84821 180.914" stroke="#AEAEAE" stroke-width="0.7" stroke-linejoin="bevel"/>
<path d="M1.87988 181.395C1.87988 181.395 2.79914 184.129 5.64828 184.743" stroke="#AEAEAE" stroke-width="0.7" stroke-linejoin="bevel"/>
<path d="M2.35352 185.277C2.35352 185.277 3.6964 187.831 6.60646 187.981" stroke="#AEAEAE" stroke-width="0.7" stroke-linejoin="bevel"/>
<path d="M3.12036 188.848C3.12036 188.848 4.64876 191.293 7.56158 191.224" stroke="#AEAEAE" stroke-width="0.7" stroke-linejoin="bevel"/>
<path d="M4.03687 192.485C4.03687 192.485 5.97505 194.617 8.82973 194.028" stroke="#AEAEAE" stroke-width="0.7" stroke-linejoin="bevel"/>
<path d="M5.49048 195.865C5.49048 195.865 7.7277 197.677 10.4606 196.663" stroke="#AEAEAE" stroke-width="0.7" stroke-linejoin="bevel"/>
<path d="M7.38989 199.03C7.38989 199.03 9.91785 200.406 12.4209 198.905" stroke="#AEAEAE" stroke-width="0.7" stroke-linejoin="bevel"/>
<path d="M9.73242 201.781C9.73242 201.781 12.4127 202.826 14.708 201.025" stroke="#AEAEAE" stroke-width="0.7" stroke-linejoin="bevel"/>
<path d="M12.4431 204.429C12.4431 204.429 15.2729 204.941 17.1834 202.729" stroke="#AEAEAE" stroke-width="0.7" stroke-linejoin="bevel"/>
<path d="M15.248 206.43C15.248 206.43 18.1 206.811 19.908 204.519" stroke="#AEAEAE" stroke-width="0.7" stroke-linejoin="bevel"/>
<path d="M18.374 208.159C18.374 208.159 21.2259 208.54 23.034 206.247" stroke="#AEAEAE" stroke-width="0.7" stroke-linejoin="bevel"/>
<path d="M21.6829 209.979C21.6829 209.979 24.5348 210.36 26.3428 208.067" stroke="#AEAEAE" stroke-width="0.7" stroke-linejoin="bevel"/>
<path d="M24.9307 211.846C24.9307 211.846 27.7992 212.068 29.4771 209.676" stroke="#AEAEAE" stroke-width="0.7" stroke-linejoin="bevel"/>
<path d="M28.1038 213.608C28.1038 213.608 30.9778 213.516 32.3872 210.954" stroke="#AEAEAE" stroke-width="0.7" stroke-linejoin="bevel"/>
<path d="M31.9302 214.873C31.9302 214.873 34.7765 214.467 35.9007 211.769" stroke="#AEAEAE" stroke-width="0.7" stroke-linejoin="bevel"/>
<path d="M35.4854 215.71C35.4854 215.71 38.3317 215.304 39.4559 212.605" stroke="#AEAEAE" stroke-width="0.7" stroke-linejoin="bevel"/>
<path d="M39.5527 216.27C39.5527 216.27 42.3991 215.864 43.5233 213.166" stroke="#AEAEAE" stroke-width="0.7" stroke-linejoin="bevel"/>
<path d="M49.659 215.403C48.9281 240.38 29.1475 240.497 29.7095 255.009C16.156 258.279 14.9378 235.662 22.768 233.989C22.6296 227.761 31.6865 224.646 33.8711 224.646" stroke="#AEAEAE" stroke-width="0.7" stroke-linejoin="bevel"/>
<path d="M26.0881 219.858C13.7363 225.728 13.9605 230.696 13.9605 230.696C6.73941 232.986 7.81372 262.793 23.0839 259.022C22.7239 257.046 24.2662 255.587 24.9362 255.048" stroke="#AEAEAE" stroke-width="0.7" stroke-linejoin="bevel"/>
<path d="M19.3845 215.912C7.47296 221.114 7.55602 228.362 7.55602 228.362C1.36212 238.427 2.61641 251.185 12.3821 253.961" stroke="#AEAEAE" stroke-width="0.7" stroke-linejoin="bevel"/>
<path d="M17.6818 211.847C4.72913 218.183 5.18045 223.452 5.18045 223.452C-3.80168 230.818 3.76557 241.153 3.76557 241.153" stroke="#AEAEAE" stroke-width="0.7" stroke-linejoin="bevel"/>
<path d="M58.4529 229.081C46.0706 237.493 46.5496 242.659 46.5496 242.659C40.6049 250.343 41.682 261.339 45.3313 264.81C45.3313 264.81 47.192 263.487 48.7509 263.473" stroke="#AEAEAE" stroke-width="0.7" stroke-linejoin="bevel"/>
<path d="M63.0076 233.8C52.2258 240.619 53.0509 245.783 53.0509 245.783C47.0176 248.587 48.3023 263.732 49.1911 265.26C51.2428 264.199 54.4132 263.554 57.2235 263.129" stroke="#AEAEAE" stroke-width="0.7" stroke-linejoin="bevel"/>
<path d="M72.1947 238.062C63.6141 241.581 61.7728 246.18 61.9057 248.389C58.3118 250.012 55.23 261.814 58.464 266.938C67.0087 262.425 72.2169 264.724 77.5663 258.971C82.0684 254.13 87.224 246.819 85.5267 238.838" stroke="#AEAEAE" stroke-width="0.7" stroke-linejoin="bevel"/>
<path d="M58.6439 222.32C55.864 225.06 58.6799 233.058 65.2255 234.603C72.095 236.226 80.2769 230.979 80.2769 230.979C66.7899 233.622 60.0865 225.099 60.8756 219.277" stroke="#AEAEAE" stroke-width="0.7" stroke-linejoin="bevel"/>
<path d="M67.651 210.212C72.0313 220.308 75.8717 221.364 90.7044 218.482C87.08 222.851 81.3347 227.605 74.4458 226.502C70.2316 225.838 64.1429 223.089 62.4844 215.656" stroke="#AEAEAE" stroke-width="0.7" stroke-linejoin="bevel"/>
<path d="M72.2834 208.228C82.2181 221.981 93.7475 211.644 97.0535 210.557C87.3376 213.753 81.8387 207.242 81.4649 205.271" stroke="#AEAEAE" stroke-width="0.7" stroke-linejoin="bevel"/>
<path d="M88.2651 234.4C88.2651 234.4 89.1816 237.752 87.0801 239.133" stroke="#AEAEAE" stroke-width="0.7" stroke-linejoin="bevel"/>
<path d="M90.9343 231.633C90.9343 231.633 91.8508 234.984 89.7493 236.365" stroke="#AEAEAE" stroke-width="0.7" stroke-linejoin="bevel"/>
<path d="M93.6533 228.503C93.6533 228.503 94.5698 231.854 92.4683 233.235" stroke="#AEAEAE" stroke-width="0.7" stroke-linejoin="bevel"/>
<path d="M96.4636 225.374C96.4636 225.374 97.3801 228.725 95.2786 230.107" stroke="#AEAEAE" stroke-width="0.7" stroke-linejoin="bevel"/>
<path d="M99.3237 221.77C99.3237 221.77 100.24 225.121 98.1387 226.502" stroke="#AEAEAE" stroke-width="0.7" stroke-linejoin="bevel"/>
<path d="M101.395 218.311C101.395 218.311 103.084 221.345 101.373 223.19" stroke="#AEAEAE" stroke-width="0.7" stroke-linejoin="bevel"/>
<path d="M103.97 214.867C103.97 214.867 105.692 217.882 104.003 219.747" stroke="#AEAEAE" stroke-width="0.7" stroke-linejoin="bevel"/>
<path d="M105.698 211.285C105.698 211.285 107.791 214.056 106.351 216.121" stroke="#AEAEAE" stroke-width="0.7" stroke-linejoin="bevel"/>
<path d="M106.448 210.213C106.448 210.213 111.595 208.387 111.833 202.412C111.9 200.706 112.16 199.008 112.728 197.396C120.951 174.039 145.491 166.992 116.983 147.278" stroke="#AEAEAE" stroke-width="0.7" stroke-linejoin="bevel"/>
<path d="M145.026 109.599C138.683 150.794 173.532 159.795 165.018 189.565C152.743 193.534 150.824 197.821 150.824 199.572C148.208 200.973 144.6 210.871 148.961 215.109" stroke="#AEAEAE" stroke-width="0.7" stroke-linejoin="bevel"/>
<path d="M144.622 112.664C155.307 102.662 157.093 130.81 144.517 124.813" stroke="#AEAEAE" stroke-width="0.7" stroke-linejoin="bevel"/>
<path d="M153.751 150.43C175.788 151.93 171.131 133.806 176.793 124.11C174.634 137.294 180.368 145.664 173.144 152.878C165.92 160.089 159.621 158.747 158.657 158.447" stroke="#AEAEAE" stroke-width="0.7" stroke-linejoin="bevel"/>
<path d="M164.58 193.997C156.647 194.911 152.148 201.728 152.217 205.977C148.789 207.867 144.509 225.257 160.155 230.523" stroke="#AEAEAE" stroke-width="0.7" stroke-linejoin="bevel"/>
<path d="M169.827 198.085C159.746 200.986 157.661 206.024 157.796 210.554C150.982 217.713 159.712 238.732 172.449 235.189C172.449 235.189 172.034 232.652 172.997 231.377" stroke="#AEAEAE" stroke-width="0.7" stroke-linejoin="bevel"/>
<path d="M178.316 203.304C167.789 203.921 166.792 209.317 166.828 213.869C162.562 219.152 166.374 230.062 173.651 231.538C174.872 231.785 176.19 231.768 177.585 231.413C178.712 223.006 196.372 216.529 191.953 201.687" stroke="#AEAEAE" stroke-width="0.7" stroke-linejoin="bevel"/>
<path d="M163.752 168.098C178.504 171.008 178.324 156.835 184.377 148.412C180.67 160.926 183.286 183.957 166.039 176.065" stroke="#AEAEAE" stroke-width="0.7" stroke-linejoin="bevel"/>
<path d="M166.158 183.937C172.33 187 181.027 186.552 186.971 173.728C186.971 173.728 186.102 192.513 172.659 192.513C165.914 192.513 165.017 189.565 165.017 189.565" stroke="#AEAEAE" stroke-width="0.7" stroke-linejoin="bevel"/>
<path d="M193.645 197.632C193.645 197.632 195.112 200.978 194.09 203.834" stroke="#AEAEAE" stroke-width="0.7" stroke-linejoin="bevel"/>
<path d="M195.588 193.522C195.588 193.522 197.056 196.868 196.034 199.725" stroke="#AEAEAE" stroke-width="0.7" stroke-linejoin="bevel"/>
<path d="M197.532 189.412C197.532 189.412 198.999 192.758 197.978 195.615" stroke="#AEAEAE" stroke-width="0.7" stroke-linejoin="bevel"/>
<path d="M199.476 185.299C199.476 185.299 200.943 188.645 199.921 191.501" stroke="#AEAEAE" stroke-width="0.7" stroke-linejoin="bevel"/>
<path d="M200.916 180.914C200.916 180.914 202.746 183.924 201.721 186.78" stroke="#AEAEAE" stroke-width="0.7" stroke-linejoin="bevel"/>
<path d="M201.624 179.961C205.739 176.793 206.672 171.038 197.825 167.556C189.3 154.228 217.462 128.565 196.064 109.651C187.085 100.7 196.709 103.118 200.146 92.208" stroke="#AEAEAE" stroke-width="0.7" stroke-linejoin="bevel"/>
<path d="M130.003 167.431C131.921 169.384 136.695 169.362 136.695 169.362" stroke="#AEAEAE" stroke-width="0.7" stroke-linejoin="bevel"/>
<path d="M131.127 164.674C136.662 171.215 141.992 171.124 143.412 170.551" stroke="#AEAEAE" stroke-width="0.7" stroke-linejoin="bevel"/>
<path d="M133.129 153.533C132.866 172.502 156.093 176.579 159.546 169.034" stroke="#AEAEAE" stroke-width="0.7" stroke-linejoin="bevel"/>
<path d="M142.28 149.081C139.995 162.662 159.787 175.156 162.836 166.033" stroke="#AEAEAE" stroke-width="0.7" stroke-linejoin="bevel"/>
<path d="M123.205 152.119L107.223 113.353" stroke="#AEAEAE" stroke-width="0.7" stroke-linejoin="bevel"/>
<path d="M105.005 72.2239C97.2804 65.1182 107.096 53.5634 119.478 52.7992C142.568 51.3764 157.802 74.4582 169.049 86.7661" stroke="#AEAEAE" stroke-width="0.7" stroke-linejoin="bevel"/>
<path d="M106.653 58.1824C114.043 57.7711 117.753 66.2468 113.174 72.6301" stroke="#AEAEAE" stroke-width="0.7" stroke-linejoin="bevel"/>
<path d="M117.512 53.0137C126.04 57.4294 126.879 68.723 123.316 74.0752" stroke="#AEAEAE" stroke-width="0.7" stroke-linejoin="bevel"/>
<path d="M133.162 54.8701C135.341 63.8933 134.646 73.4556 130.855 75.8538" stroke="#AEAEAE" stroke-width="0.7" stroke-linejoin="bevel"/>
<path d="M143.562 60.5254C144.057 71.0659 142.136 76.4987 139.649 78.6524" stroke="#AEAEAE" stroke-width="0.7" stroke-linejoin="bevel"/>
<path d="M154.85 70.5908C155.473 77.2742 149.277 82.2901 149.277 82.2901" stroke="#AEAEAE" stroke-width="0.7" stroke-linejoin="bevel"/>
<path d="M162.8 79.5527C161.972 83.0403 160.078 85.2106 158.776 85.5914" stroke="#AEAEAE" stroke-width="0.7" stroke-linejoin="bevel"/>
<path d="M49.6288 90.1982C58.0793 88.2529 59.5689 99.4132 50.9689 99.7299C52.9818 104.282 50.0829 107.43 45.2734 107.808C49.1941 113.833 42.272 116.912 39.1681 116.776C40.3615 118.213 40.259 122.15 37.3379 123.618C41.4441 124.929 40.475 128.475 39.5447 129.628C44.5756 128.739 49.1193 132.046 47.5937 138.994" stroke="#AEAEAE" stroke-width="0.7" stroke-linejoin="bevel"/>
<path d="M45.1681 94.4307C44.163 96.073 44.7998 97.4097 44.7998 97.4097C42.8893 97.2846 41.8206 98.1628 41.8206 98.1628" stroke="#AEAEAE" stroke-width="0.7" stroke-linejoin="bevel"/>
<path d="M199.445 89.529C199.445 89.529 202.444 90.2237 203.756 88.2812" stroke="#AEAEAE" stroke-width="0.7" stroke-linejoin="bevel"/>
<path d="M199.852 86.6333C199.852 86.6333 202.61 87.2307 203.903 85.3633" stroke="#AEAEAE" stroke-width="0.7" stroke-linejoin="bevel"/>
<path d="M200.101 83.8101C200.101 83.8101 202.87 84.3131 203.906 82.4512" stroke="#AEAEAE" stroke-width="0.7" stroke-linejoin="bevel"/>
<path d="M200.448 81.0918C200.448 81.0918 203.017 81.3002 203.994 79.2549" stroke="#AEAEAE" stroke-width="0.7" stroke-linejoin="bevel"/>
<path d="M200.733 78.1908C200.733 78.1908 203.363 78.1908 204.244 75.9121" stroke="#AEAEAE" stroke-width="0.7" stroke-linejoin="bevel"/>
<path d="M200.946 75.1065C200.946 75.1065 203.125 75.2093 204.368 72.3525" stroke="#AEAEAE" stroke-width="0.7" stroke-linejoin="bevel"/>
<path d="M201.012 71.7632C201.012 71.7632 203.726 71.5075 204.368 69.0537" stroke="#AEAEAE" stroke-width="0.7" stroke-linejoin="bevel"/>
<path d="M200.888 68.6728C200.888 68.6728 204.116 67.4779 203.895 65.7744" stroke="#AEAEAE" stroke-width="0.7" stroke-linejoin="bevel"/>
<path d="M200.636 66.0831C200.636 66.0831 203.535 64.6826 203.31 62.7734" stroke="#AEAEAE" stroke-width="0.7" stroke-linejoin="bevel"/>
<path d="M199.946 63.4321C201.306 62.8652 202.754 61.2562 202.435 59.9668" stroke="#AEAEAE" stroke-width="0.7" stroke-linejoin="bevel"/>
<path d="M184.529 74.0057C188.691 70.6738 192.797 75.4647 191.136 80.4612C189.594 86.2219 182.165 86.9305 181.157 81.0086" stroke="#AEAEAE" stroke-width="0.7" stroke-linejoin="bevel"/>
<path d="M201.287 57.2822C201.58 58.2215 200.755 60.2863 199.276 60.8226" stroke="#AEAEAE" stroke-width="0.7" stroke-linejoin="bevel"/>
<path d="M199.946 54.2666C200.196 54.7223 200.223 57.2706 198.241 58.2377" stroke="#AEAEAE" stroke-width="0.7" stroke-linejoin="bevel"/>
<path d="M198.423 52.0518C198.626 52.5575 198.357 55.342 197.075 55.8756" stroke="#AEAEAE" stroke-width="0.7" stroke-linejoin="bevel"/>
<path d="M197.014 49.3096C197.216 49.8153 196.948 52.5998 195.666 53.1334" stroke="#AEAEAE" stroke-width="0.7" stroke-linejoin="bevel"/>
<path d="M195.605 46.7197C195.807 47.2255 195.538 50.01 194.256 50.5435" stroke="#AEAEAE" stroke-width="0.7" stroke-linejoin="bevel"/>
<path d="M193.47 44.0186C193.753 44.4826 193.941 47.2755 192.767 48.0147" stroke="#AEAEAE" stroke-width="0.7" stroke-linejoin="bevel"/>
<path d="M191.371 41.6592C191.654 42.1233 191.842 44.9161 190.668 45.6553" stroke="#AEAEAE" stroke-width="0.7" stroke-linejoin="bevel"/>
<path d="M188.846 39.7578C189.178 40.1885 189.671 42.9452 188.583 43.8067" stroke="#AEAEAE" stroke-width="0.7" stroke-linejoin="bevel"/>
<path d="M186.468 37.8486C186.8 38.2794 187.293 41.0361 186.205 41.8975" stroke="#AEAEAE" stroke-width="0.7" stroke-linejoin="bevel"/>
<path d="M183.915 36.04C184.247 36.4708 184.74 39.2275 183.652 40.0889" stroke="#AEAEAE" stroke-width="0.7" stroke-linejoin="bevel"/>
<path d="M180.891 34.2998C181.276 34.6833 182.129 37.3483 181.165 38.3487" stroke="#AEAEAE" stroke-width="0.7" stroke-linejoin="bevel"/>
<path d="M177.596 32.833C178.014 33.1776 179.108 35.7537 178.239 36.8375" stroke="#AEAEAE" stroke-width="0.7" stroke-linejoin="bevel"/>
<path d="M174.39 31.4404C174.808 31.785 175.902 34.3611 175.032 35.4449" stroke="#AEAEAE" stroke-width="0.7" stroke-linejoin="bevel"/>
<path d="M170.962 30.29C171.38 30.6346 172.474 33.2107 171.605 34.2945" stroke="#AEAEAE" stroke-width="0.7" stroke-linejoin="bevel"/>
<path d="M167.507 29.2344C167.925 29.579 169.018 32.155 168.149 33.2388" stroke="#AEAEAE" stroke-width="0.7" stroke-linejoin="bevel"/>
<path d="M163.924 28.3506C164.356 28.6785 165.552 31.2101 164.727 32.3272" stroke="#AEAEAE" stroke-width="0.7" stroke-linejoin="bevel"/>
<path d="M160.094 27.9277C160.549 28.2251 161.916 30.665 161.169 31.8377" stroke="#AEAEAE" stroke-width="0.7" stroke-linejoin="bevel"/>
<path d="M156.279 27.4805C156.753 27.7445 158.292 30.0788 157.633 31.3043" stroke="#AEAEAE" stroke-width="0.7" stroke-linejoin="bevel"/>
<path d="M152.533 27.1191C153.006 27.3831 154.546 29.7174 153.887 30.943" stroke="#AEAEAE" stroke-width="0.7" stroke-linejoin="bevel"/>
<path d="M149.265 26.9219C149.739 27.1859 151.278 29.5202 150.619 30.7457" stroke="#AEAEAE" stroke-width="0.7" stroke-linejoin="bevel"/>
<path d="M145.912 26.9219C146.386 27.1859 147.925 29.5202 147.266 30.7457" stroke="#AEAEAE" stroke-width="0.7" stroke-linejoin="bevel"/>
<path d="M142.258 26.9219C142.731 27.1859 144.271 29.5202 143.612 30.7457" stroke="#AEAEAE" stroke-width="0.7" stroke-linejoin="bevel"/>
<path d="M138.752 27.125C139.226 27.389 140.765 29.7233 140.106 30.9488" stroke="#AEAEAE" stroke-width="0.7" stroke-linejoin="bevel"/>
<path d="M134.945 27.3027C135.419 27.5667 136.958 29.901 136.299 31.1265" stroke="#AEAEAE" stroke-width="0.7" stroke-linejoin="bevel"/>
<path d="M130.966 27.6924C131.44 27.9564 132.979 30.2907 132.32 31.5162" stroke="#AEAEAE" stroke-width="0.7" stroke-linejoin="bevel"/>
<path d="M126.987 28.084C127.461 28.348 129 30.6823 128.341 31.9078" stroke="#AEAEAE" stroke-width="0.7" stroke-linejoin="bevel"/>
<path d="M123.009 28.4756C123.482 28.7396 125.021 31.0739 124.363 32.2994" stroke="#AEAEAE" stroke-width="0.7" stroke-linejoin="bevel"/>
<path d="M119.03 28.8672C119.503 29.1312 121.043 31.4655 120.384 32.691" stroke="#AEAEAE" stroke-width="0.7" stroke-linejoin="bevel"/>
<path d="M115.051 29.2568C115.524 29.5208 117.064 31.8551 116.405 33.0807" stroke="#AEAEAE" stroke-width="0.7" stroke-linejoin="bevel"/>
<path d="M111.075 29.6484C111.548 29.9124 113.088 32.2467 112.429 33.4722" stroke="#AEAEAE" stroke-width="0.7" stroke-linejoin="bevel"/>
<path d="M106.866 30.4297C107.34 30.6937 108.879 33.028 108.22 34.2535" stroke="#AEAEAE" stroke-width="0.7" stroke-linejoin="bevel"/>
<path d="M102.574 31.2129C103.048 31.4769 104.587 33.8112 103.928 35.0367" stroke="#AEAEAE" stroke-width="0.7" stroke-linejoin="bevel"/>
<path d="M98.3076 31.7607C98.7811 32.0247 100.321 34.359 99.6616 35.5846" stroke="#AEAEAE" stroke-width="0.7" stroke-linejoin="bevel"/>
<path d="M94.0159 32.6025C94.4893 32.8665 96.0288 35.2008 95.3698 36.4264" stroke="#AEAEAE" stroke-width="0.7" stroke-linejoin="bevel"/>
<path d="M89.666 33.6699C90.1395 33.9339 91.679 36.2682 91.02 37.4937" stroke="#AEAEAE" stroke-width="0.7" stroke-linejoin="bevel"/>
<path d="M85.3108 34.5146C85.7843 34.7786 87.3237 37.113 86.6648 38.3385" stroke="#AEAEAE" stroke-width="0.7" stroke-linejoin="bevel"/>
<path d="M81.3596 35.29C81.8331 35.554 83.3726 37.8883 82.7136 39.1139" stroke="#AEAEAE" stroke-width="0.7" stroke-linejoin="bevel"/>
<path d="M77.198 36.4258C77.6715 36.6898 78.6156 38.0654 78.455 39.9773" stroke="#AEAEAE" stroke-width="0.7" stroke-linejoin="bevel"/>
<path d="M73.4268 37.7744C73.7535 38.3385 74.4485 38.9777 74.2879 40.8896" stroke="#AEAEAE" stroke-width="0.7" stroke-linejoin="bevel"/>
<path d="M125.847 149.198C125.847 149.198 127.882 151.766 129.859 151.986" stroke="#AEAEAE" stroke-width="0.7" stroke-linejoin="bevel"/>
<path d="M128.97 147.872C128.97 147.872 131.005 150.44 132.982 150.659" stroke="#AEAEAE" stroke-width="0.7" stroke-linejoin="bevel"/>
<path d="M132.45 146.48C132.45 146.48 134.485 149.048 136.462 149.268" stroke="#AEAEAE" stroke-width="0.7" stroke-linejoin="bevel"/>
<path d="M135.565 144.921C135.565 144.921 137.6 147.489 139.577 147.708" stroke="#AEAEAE" stroke-width="0.7" stroke-linejoin="bevel"/>
<path d="M139.062 143.526C139.062 143.526 141.097 146.094 143.074 146.314" stroke="#AEAEAE" stroke-width="0.7" stroke-linejoin="bevel"/>
<path d="M142.559 142.134C142.559 142.134 144.594 144.702 146.571 144.921" stroke="#AEAEAE" stroke-width="0.7" stroke-linejoin="bevel"/>
<path d="M196.674 170.549C199.697 172.925 199.733 176.41 197.751 178.51" stroke="#AEAEAE" stroke-width="0.7" stroke-linejoin="bevel"/>
<path d="M181.01 59.48C183.585 52.9634 192.77 55.1782 192.559 62.2756C192.631 66.6468 188.301 69.9065 184.388 68.2503" stroke="#AEAEAE" stroke-width="0.7" stroke-linejoin="bevel"/>
<path d="M167.817 49.34C168.409 35.7732 186.985 47.2419 176.4 54.267" stroke="#AEAEAE" stroke-width="0.7" stroke-linejoin="bevel"/>
<path d="M150.965 45.9278C148.809 32.6556 167.523 35.6207 162.19 47.459" stroke="#AEAEAE" stroke-width="0.7" stroke-linejoin="bevel"/>
<path d="M134.087 45.8827C129.895 33.4664 149.562 33.0384 145.965 45.7076" stroke="#AEAEAE" stroke-width="0.7" stroke-linejoin="bevel"/>
<path d="M118.52 47.2138C113.786 43.6568 116.859 37.6737 122.984 37.8905C128.258 37.721 130.969 42.6091 128.505 46.2634" stroke="#AEAEAE" stroke-width="0.7" stroke-linejoin="bevel"/>
<path d="M101.949 49.7072C96.9343 47.0311 100.202 40.0532 105.861 40.2532C110.192 40.1754 113.558 44.6912 111.235 48.1954" stroke="#AEAEAE" stroke-width="0.7" stroke-linejoin="bevel"/>
<path d="M84.9674 52.9027C77.3863 44.4964 96.674 38.6023 95.4751 50.8852" stroke="#AEAEAE" stroke-width="0.7" stroke-linejoin="bevel"/>
<path d="M67.6815 55.9174C61.8974 52.9301 64.9237 46.5497 71.2865 46.7692C76.0739 46.7386 79.5571 50.4402 77.1952 54.2668" stroke="#AEAEAE" stroke-width="0.7" stroke-linejoin="bevel"/>
<path d="M46.2922 56.3094C42.0974 44.8685 63.8743 46.2218 56.8415 56.9346" stroke="#AEAEAE" stroke-width="0.7" stroke-linejoin="bevel"/>
<path d="M29.394 46.1973C34.4472 38.8359 48.5267 48.2064 37.8335 53.492" stroke="#AEAEAE" stroke-width="0.7" stroke-linejoin="bevel"/>
<path d="M22.3223 29.6488C33.0045 25.7222 37.0774 40.8007 26.362 41.2926" stroke="#AEAEAE" stroke-width="0.7" stroke-linejoin="bevel"/>
<path d="M25.562 13.2891C35.0231 15.2399 31.4984 27.6089 21.9597 24.8689" stroke="#AEAEAE" stroke-width="0.7" stroke-linejoin="bevel"/>
<path d="M37.9525 3.26562C46.9125 8.51781 33.7827 16.9046 29.3857 8.81238" stroke="#AEAEAE" stroke-width="0.7" stroke-linejoin="bevel"/>
<path d="M53.5494 0.0722656C54.0451 5.71072 45.3177 6.31375 42.8894 1.4923" stroke="#AEAEAE" stroke-width="0.7" stroke-linejoin="bevel"/>
<path d="M69.3124 4.74112C66.9118 9.84046 58.1235 6.47795 59.0234 0.581055" stroke="#AEAEAE" stroke-width="0.7" stroke-linejoin="bevel"/>
<path d="M63.8744 16.7568C51.8106 7.11944 34.1121 19.23 39.6498 32.7746" stroke="#AEAEAE" stroke-width="0.7" stroke-linejoin="bevel"/>
<path d="M70.7854 134.798C67.2136 133.703 63.603 137.101 63.9104 138.977C61.7258 138.777 57.4257 143.61 59.3418 147.183" stroke="#AEAEAE" stroke-width="0.7" stroke-linejoin="bevel"/>
<path d="M73.197 136.412C69.6252 135.317 66.0146 138.716 66.322 140.591C64.1374 140.391 59.8374 145.224 61.7534 148.798" stroke="#AEAEAE" stroke-width="0.7" stroke-linejoin="bevel"/>
<path d="M75.8772 137.938C72.3054 136.843 68.6948 140.242 69.0022 142.118C66.8175 141.918 62.5175 146.75 64.4336 150.324" stroke="#AEAEAE" stroke-width="0.7" stroke-linejoin="bevel"/>
<path d="M36.4434 105.477C36.4434 105.477 37.2103 104.899 38.2182 105.083C38.2182 105.083 37.4014 104.016 37.8582 103.365" stroke="#AEAEAE" stroke-width="0.7" stroke-linejoin="bevel"/>
<path d="M30.4433 146.103C33.0211 139.208 26.8521 138.238 24.565 139.158C16.8843 142.248 12.9331 151.402 15.0236 161.337C17.9337 175.165 28.0261 178.177 28.8623 189.56C28.8623 189.56 31.0164 183.304 27.428 176.707C19.3845 161.92 26.6389 156.282 30.4433 146.1V146.103Z" stroke="#AEAEAE" stroke-width="0.7" stroke-linejoin="bevel"/>
<path d="M90.494 124.113C90.494 124.113 82.6609 112.072 71.3779 109.062C64.824 107.314 51.8769 108.504 47.037 117.441C43.2021 124.524 49.3157 127.598 56.2683 122.273C74.3765 108.403 90.4967 124.11 90.4967 124.11L90.494 124.113Z" stroke="#AEAEAE" stroke-width="0.7" stroke-linejoin="bevel"/>
<path d="M95.4808 125.247C92.053 104.924 86.6897 95.1701 67.8394 95.5758C52.4281 95.9065 64.2621 76.5457 84.6159 88.3784C103.455 99.3302 95.4808 125.247 95.4808 125.247V125.247Z" stroke="#AEAEAE" stroke-width="0.7" stroke-linejoin="bevel"/>
<path d="M129.981 104.199C116.751 115.373 125.384 125.091 124.819 137.455" stroke="#AEAEAE" stroke-width="0.7" stroke-linejoin="bevel"/>
<path d="M129.859 111.66C122.291 122.212 128.358 126.464 126.938 140.758" stroke="#AEAEAE" stroke-width="0.7" stroke-linejoin="bevel"/>
<path d="M138.879 113.353C134.186 124.06 138.495 125.702 137.988 132.672" stroke="#AEAEAE" stroke-width="0.7" stroke-linejoin="bevel"/>
<path d="M141.618 116.585C137.462 125.692 139.923 126.956 139.062 135.207" stroke="#AEAEAE" stroke-width="0.7" stroke-linejoin="bevel"/>
<path d="M145.558 131.202C163.644 137.602 163.641 115.359 174.066 107.884C163.686 121.173 175.008 144.921 150.489 144.532" stroke="#AEAEAE" stroke-width="0.7" stroke-linejoin="bevel"/>
<path d="M188.259 95.0342C184.925 105.761 177.934 105.919 176.932 119.511" stroke="#AEAEAE" stroke-width="0.7" stroke-linejoin="bevel"/>
<path d="M187.307 107.881C188.683 116.584 180.645 121.331 180.852 129.545" stroke="#AEAEAE" stroke-width="0.7" stroke-linejoin="bevel"/>
<path d="M191.061 113.353C191.009 124.557 181.329 124.154 181.434 141.425" stroke="#AEAEAE" stroke-width="0.7" stroke-linejoin="bevel"/>
<path d="M193.337 123.654C192.844 133.55 185.803 135.682 185.54 143.446" stroke="#AEAEAE" stroke-width="0.7" stroke-linejoin="bevel"/>
<path d="M194.868 135.554C194.55 144.46 185.54 145.527 185.54 164.68" stroke="#AEAEAE" stroke-width="0.7" stroke-linejoin="bevel"/>
<path d="M59.5493 131.905C56.6005 130.071 57.7634 121.929 62.9883 123.193C68.2131 124.455 71.5467 128.868 71.5467 128.868" stroke="#AEAEAE" stroke-width="0.7" stroke-linejoin="bevel"/>
<path d="M103.474 180.975C103.474 180.975 104.668 182.293 109.148 183.385C109.148 183.385 108.788 181.556 107.456 179.583C107.032 178.958 106.512 178.316 105.872 177.713" stroke="#AEAEAE" stroke-width="0.7" stroke-linejoin="bevel"/>
<path d="M114.126 167.436C114.126 167.436 115.928 169.359 118.672 171.435C118.672 171.435 119.207 168.742 116.792 165.246" stroke="#AEAEAE" stroke-width="0.7" stroke-linejoin="bevel"/>
</g>
<defs>
<clipPath id="clip0_400_2979">
<rect width="204" height="267" fill="white" transform="translate(0.714355)"/>
</clipPath>
</defs>
</svg>
